G04 MADE WITH FRITZING*
G04 WWW.FRITZING.ORG*
G04 DOUBLE SIDED*
G04 HOLES PLATED*
G04 CONTOUR ON CENTER OF CONTOUR VECTOR*
%ASAXBY*%
%FSLAX23Y23*%
%MOIN*%
%OFA0B0*%
%SFA1.0B1.0*%
%ADD10C,0.078000*%
%ADD11C,0.138425*%
%ADD12C,0.066000*%
%ADD13C,0.070000*%
%ADD14C,0.075000*%
%ADD15C,0.062992*%
%ADD16R,0.078000X0.078000*%
%ADD17R,0.061024X0.023622*%
%ADD18R,0.062992X0.062992*%
%ADD19C,0.024000*%
%ADD20R,0.001000X0.001000*%
%LNCOPPER1*%
G90*
G70*
G54D10*
X398Y213D03*
X498Y213D03*
G54D11*
X849Y172D03*
X849Y672D03*
G54D12*
X1499Y172D03*
X1399Y172D03*
G54D11*
X1649Y172D03*
G54D12*
X1299Y172D03*
G54D11*
X1649Y672D03*
G54D12*
X1199Y172D03*
X1099Y172D03*
X999Y172D03*
G54D13*
X1499Y672D03*
X1399Y672D03*
X1299Y672D03*
X1199Y672D03*
X1099Y672D03*
X999Y672D03*
G54D14*
X148Y563D03*
X148Y163D03*
G54D15*
X247Y763D03*
X148Y763D03*
G54D14*
X1971Y263D03*
X1971Y519D03*
X2148Y263D03*
X2148Y519D03*
G54D16*
X398Y213D03*
G54D17*
X948Y481D03*
X948Y442D03*
X948Y403D03*
X948Y363D03*
X1550Y363D03*
X1550Y403D03*
X1550Y442D03*
X1550Y481D03*
G54D18*
X247Y763D03*
G54D19*
X947Y64D02*
X986Y144D01*
D02*
X449Y64D02*
X947Y64D01*
D02*
X408Y185D02*
X449Y64D01*
D02*
X349Y162D02*
X177Y163D01*
D02*
X377Y192D02*
X349Y162D01*
D02*
X1368Y926D02*
X1485Y700D01*
D02*
X1256Y922D02*
X1294Y703D01*
D02*
X748Y863D02*
X509Y241D01*
D02*
X1048Y863D02*
X748Y863D01*
D02*
X1118Y933D02*
X1048Y863D01*
D02*
X148Y736D02*
X148Y592D01*
D02*
X1048Y264D02*
X1943Y263D01*
D02*
X1014Y199D02*
X1048Y264D01*
G54D20*
X440Y2101D02*
X455Y2101D01*
X540Y2101D02*
X555Y2101D01*
X640Y2101D02*
X655Y2101D01*
X740Y2101D02*
X754Y2101D01*
X840Y2101D02*
X855Y2101D01*
X940Y2101D02*
X955Y2101D01*
X1040Y2101D02*
X1055Y2101D01*
X1140Y2101D02*
X1155Y2101D01*
X1240Y2101D02*
X1255Y2101D01*
X1340Y2101D02*
X1355Y2101D01*
X1440Y2101D02*
X1455Y2101D01*
X1540Y2101D02*
X1555Y2101D01*
X1640Y2101D02*
X1655Y2101D01*
X1740Y2101D02*
X1755Y2101D01*
X1840Y2101D02*
X1854Y2101D01*
X437Y2100D02*
X459Y2100D01*
X536Y2100D02*
X558Y2100D01*
X636Y2100D02*
X658Y2100D01*
X736Y2100D02*
X758Y2100D01*
X837Y2100D02*
X859Y2100D01*
X936Y2100D02*
X958Y2100D01*
X1036Y2100D02*
X1058Y2100D01*
X1136Y2100D02*
X1158Y2100D01*
X1236Y2100D02*
X1258Y2100D01*
X1336Y2100D02*
X1358Y2100D01*
X1436Y2100D02*
X1458Y2100D01*
X1536Y2100D02*
X1558Y2100D01*
X1636Y2100D02*
X1658Y2100D01*
X1736Y2100D02*
X1758Y2100D01*
X1836Y2100D02*
X1858Y2100D01*
X434Y2099D02*
X461Y2099D01*
X534Y2099D02*
X561Y2099D01*
X634Y2099D02*
X661Y2099D01*
X733Y2099D02*
X761Y2099D01*
X834Y2099D02*
X861Y2099D01*
X934Y2099D02*
X961Y2099D01*
X1034Y2099D02*
X1061Y2099D01*
X1134Y2099D02*
X1161Y2099D01*
X1234Y2099D02*
X1261Y2099D01*
X1334Y2099D02*
X1361Y2099D01*
X1434Y2099D02*
X1461Y2099D01*
X1534Y2099D02*
X1561Y2099D01*
X1633Y2099D02*
X1661Y2099D01*
X1733Y2099D02*
X1761Y2099D01*
X1833Y2099D02*
X1861Y2099D01*
X432Y2098D02*
X464Y2098D01*
X531Y2098D02*
X563Y2098D01*
X631Y2098D02*
X663Y2098D01*
X731Y2098D02*
X763Y2098D01*
X831Y2098D02*
X864Y2098D01*
X931Y2098D02*
X963Y2098D01*
X1031Y2098D02*
X1063Y2098D01*
X1131Y2098D02*
X1163Y2098D01*
X1231Y2098D02*
X1263Y2098D01*
X1331Y2098D02*
X1363Y2098D01*
X1431Y2098D02*
X1463Y2098D01*
X1531Y2098D02*
X1563Y2098D01*
X1631Y2098D02*
X1663Y2098D01*
X1731Y2098D02*
X1763Y2098D01*
X1831Y2098D02*
X1863Y2098D01*
X430Y2097D02*
X466Y2097D01*
X529Y2097D02*
X566Y2097D01*
X629Y2097D02*
X665Y2097D01*
X729Y2097D02*
X765Y2097D01*
X829Y2097D02*
X866Y2097D01*
X929Y2097D02*
X966Y2097D01*
X1029Y2097D02*
X1066Y2097D01*
X1129Y2097D02*
X1165Y2097D01*
X1229Y2097D02*
X1265Y2097D01*
X1329Y2097D02*
X1365Y2097D01*
X1429Y2097D02*
X1465Y2097D01*
X1529Y2097D02*
X1565Y2097D01*
X1629Y2097D02*
X1665Y2097D01*
X1729Y2097D02*
X1765Y2097D01*
X1829Y2097D02*
X1865Y2097D01*
X428Y2096D02*
X467Y2096D01*
X528Y2096D02*
X567Y2096D01*
X627Y2096D02*
X667Y2096D01*
X727Y2096D02*
X767Y2096D01*
X828Y2096D02*
X867Y2096D01*
X928Y2096D02*
X967Y2096D01*
X1028Y2096D02*
X1067Y2096D01*
X1128Y2096D02*
X1167Y2096D01*
X1228Y2096D02*
X1267Y2096D01*
X1328Y2096D02*
X1367Y2096D01*
X1427Y2096D02*
X1467Y2096D01*
X1527Y2096D02*
X1567Y2096D01*
X1627Y2096D02*
X1667Y2096D01*
X1727Y2096D02*
X1767Y2096D01*
X1827Y2096D02*
X1867Y2096D01*
X426Y2095D02*
X469Y2095D01*
X526Y2095D02*
X569Y2095D01*
X626Y2095D02*
X669Y2095D01*
X726Y2095D02*
X769Y2095D01*
X826Y2095D02*
X869Y2095D01*
X926Y2095D02*
X969Y2095D01*
X1026Y2095D02*
X1069Y2095D01*
X1126Y2095D02*
X1169Y2095D01*
X1226Y2095D02*
X1269Y2095D01*
X1326Y2095D02*
X1369Y2095D01*
X1426Y2095D02*
X1469Y2095D01*
X1526Y2095D02*
X1569Y2095D01*
X1626Y2095D02*
X1669Y2095D01*
X1726Y2095D02*
X1769Y2095D01*
X1826Y2095D02*
X1869Y2095D01*
X425Y2094D02*
X471Y2094D01*
X525Y2094D02*
X570Y2094D01*
X624Y2094D02*
X670Y2094D01*
X724Y2094D02*
X770Y2094D01*
X825Y2094D02*
X870Y2094D01*
X925Y2094D02*
X970Y2094D01*
X1025Y2094D02*
X1070Y2094D01*
X1125Y2094D02*
X1170Y2094D01*
X1225Y2094D02*
X1270Y2094D01*
X1324Y2094D02*
X1370Y2094D01*
X1424Y2094D02*
X1470Y2094D01*
X1524Y2094D02*
X1570Y2094D01*
X1624Y2094D02*
X1670Y2094D01*
X1724Y2094D02*
X1770Y2094D01*
X1824Y2094D02*
X1870Y2094D01*
X423Y2093D02*
X472Y2093D01*
X523Y2093D02*
X572Y2093D01*
X623Y2093D02*
X671Y2093D01*
X723Y2093D02*
X771Y2093D01*
X823Y2093D02*
X872Y2093D01*
X923Y2093D02*
X972Y2093D01*
X1023Y2093D02*
X1072Y2093D01*
X1123Y2093D02*
X1172Y2093D01*
X1223Y2093D02*
X1272Y2093D01*
X1323Y2093D02*
X1372Y2093D01*
X1423Y2093D02*
X1471Y2093D01*
X1523Y2093D02*
X1571Y2093D01*
X1623Y2093D02*
X1671Y2093D01*
X1723Y2093D02*
X1771Y2093D01*
X1823Y2093D02*
X1871Y2093D01*
X422Y2092D02*
X473Y2092D01*
X522Y2092D02*
X573Y2092D01*
X622Y2092D02*
X673Y2092D01*
X722Y2092D02*
X772Y2092D01*
X822Y2092D02*
X873Y2092D01*
X922Y2092D02*
X973Y2092D01*
X1022Y2092D02*
X1073Y2092D01*
X1122Y2092D02*
X1173Y2092D01*
X1222Y2092D02*
X1273Y2092D01*
X1322Y2092D02*
X1373Y2092D01*
X1422Y2092D02*
X1473Y2092D01*
X1522Y2092D02*
X1573Y2092D01*
X1622Y2092D02*
X1673Y2092D01*
X1722Y2092D02*
X1773Y2092D01*
X1822Y2092D02*
X1873Y2092D01*
X421Y2091D02*
X474Y2091D01*
X521Y2091D02*
X574Y2091D01*
X621Y2091D02*
X674Y2091D01*
X721Y2091D02*
X774Y2091D01*
X821Y2091D02*
X874Y2091D01*
X921Y2091D02*
X974Y2091D01*
X1021Y2091D02*
X1074Y2091D01*
X1121Y2091D02*
X1174Y2091D01*
X1221Y2091D02*
X1274Y2091D01*
X1321Y2091D02*
X1374Y2091D01*
X1421Y2091D02*
X1474Y2091D01*
X1521Y2091D02*
X1574Y2091D01*
X1621Y2091D02*
X1674Y2091D01*
X1721Y2091D02*
X1774Y2091D01*
X1821Y2091D02*
X1874Y2091D01*
X420Y2090D02*
X475Y2090D01*
X520Y2090D02*
X575Y2090D01*
X620Y2090D02*
X675Y2090D01*
X720Y2090D02*
X775Y2090D01*
X820Y2090D02*
X875Y2090D01*
X920Y2090D02*
X975Y2090D01*
X1020Y2090D02*
X1075Y2090D01*
X1120Y2090D02*
X1175Y2090D01*
X1220Y2090D02*
X1275Y2090D01*
X1320Y2090D02*
X1375Y2090D01*
X1420Y2090D02*
X1475Y2090D01*
X1520Y2090D02*
X1575Y2090D01*
X1620Y2090D02*
X1675Y2090D01*
X1720Y2090D02*
X1775Y2090D01*
X1820Y2090D02*
X1875Y2090D01*
X419Y2089D02*
X476Y2089D01*
X519Y2089D02*
X576Y2089D01*
X619Y2089D02*
X676Y2089D01*
X719Y2089D02*
X775Y2089D01*
X819Y2089D02*
X876Y2089D01*
X919Y2089D02*
X976Y2089D01*
X1019Y2089D02*
X1076Y2089D01*
X1119Y2089D02*
X1176Y2089D01*
X1219Y2089D02*
X1276Y2089D01*
X1319Y2089D02*
X1376Y2089D01*
X1419Y2089D02*
X1476Y2089D01*
X1519Y2089D02*
X1576Y2089D01*
X1619Y2089D02*
X1676Y2089D01*
X1719Y2089D02*
X1776Y2089D01*
X1819Y2089D02*
X1876Y2089D01*
X418Y2088D02*
X477Y2088D01*
X518Y2088D02*
X577Y2088D01*
X618Y2088D02*
X677Y2088D01*
X718Y2088D02*
X776Y2088D01*
X818Y2088D02*
X877Y2088D01*
X918Y2088D02*
X977Y2088D01*
X1018Y2088D02*
X1077Y2088D01*
X1118Y2088D02*
X1177Y2088D01*
X1218Y2088D02*
X1277Y2088D01*
X1318Y2088D02*
X1377Y2088D01*
X1418Y2088D02*
X1477Y2088D01*
X1518Y2088D02*
X1577Y2088D01*
X1618Y2088D02*
X1676Y2088D01*
X1718Y2088D02*
X1776Y2088D01*
X1818Y2088D02*
X1876Y2088D01*
X418Y2087D02*
X478Y2087D01*
X517Y2087D02*
X577Y2087D01*
X617Y2087D02*
X677Y2087D01*
X717Y2087D02*
X777Y2087D01*
X817Y2087D02*
X878Y2087D01*
X917Y2087D02*
X978Y2087D01*
X1017Y2087D02*
X1077Y2087D01*
X1117Y2087D02*
X1177Y2087D01*
X1217Y2087D02*
X1277Y2087D01*
X1317Y2087D02*
X1377Y2087D01*
X1417Y2087D02*
X1477Y2087D01*
X1517Y2087D02*
X1577Y2087D01*
X1617Y2087D02*
X1677Y2087D01*
X1717Y2087D02*
X1777Y2087D01*
X1817Y2087D02*
X1877Y2087D01*
X417Y2086D02*
X478Y2086D01*
X517Y2086D02*
X578Y2086D01*
X617Y2086D02*
X678Y2086D01*
X716Y2086D02*
X778Y2086D01*
X817Y2086D02*
X878Y2086D01*
X917Y2086D02*
X978Y2086D01*
X1017Y2086D02*
X1078Y2086D01*
X1117Y2086D02*
X1178Y2086D01*
X1217Y2086D02*
X1278Y2086D01*
X1317Y2086D02*
X1378Y2086D01*
X1417Y2086D02*
X1478Y2086D01*
X1516Y2086D02*
X1578Y2086D01*
X1616Y2086D02*
X1678Y2086D01*
X1716Y2086D02*
X1778Y2086D01*
X1816Y2086D02*
X1878Y2086D01*
X416Y2085D02*
X479Y2085D01*
X516Y2085D02*
X579Y2085D01*
X616Y2085D02*
X679Y2085D01*
X716Y2085D02*
X779Y2085D01*
X816Y2085D02*
X879Y2085D01*
X916Y2085D02*
X979Y2085D01*
X1016Y2085D02*
X1079Y2085D01*
X1116Y2085D02*
X1179Y2085D01*
X1216Y2085D02*
X1279Y2085D01*
X1316Y2085D02*
X1379Y2085D01*
X1416Y2085D02*
X1479Y2085D01*
X1516Y2085D02*
X1579Y2085D01*
X1616Y2085D02*
X1679Y2085D01*
X1716Y2085D02*
X1779Y2085D01*
X1816Y2085D02*
X1879Y2085D01*
X416Y2084D02*
X480Y2084D01*
X515Y2084D02*
X580Y2084D01*
X615Y2084D02*
X679Y2084D01*
X715Y2084D02*
X779Y2084D01*
X815Y2084D02*
X880Y2084D01*
X915Y2084D02*
X980Y2084D01*
X1015Y2084D02*
X1080Y2084D01*
X1115Y2084D02*
X1179Y2084D01*
X1215Y2084D02*
X1279Y2084D01*
X1315Y2084D02*
X1379Y2084D01*
X1415Y2084D02*
X1479Y2084D01*
X1515Y2084D02*
X1579Y2084D01*
X1615Y2084D02*
X1679Y2084D01*
X1715Y2084D02*
X1779Y2084D01*
X1815Y2084D02*
X1879Y2084D01*
X415Y2083D02*
X480Y2083D01*
X515Y2083D02*
X580Y2083D01*
X615Y2083D02*
X680Y2083D01*
X714Y2083D02*
X780Y2083D01*
X815Y2083D02*
X880Y2083D01*
X915Y2083D02*
X980Y2083D01*
X1015Y2083D02*
X1080Y2083D01*
X1115Y2083D02*
X1180Y2083D01*
X1215Y2083D02*
X1280Y2083D01*
X1315Y2083D02*
X1380Y2083D01*
X1415Y2083D02*
X1480Y2083D01*
X1515Y2083D02*
X1580Y2083D01*
X1615Y2083D02*
X1680Y2083D01*
X1714Y2083D02*
X1780Y2083D01*
X1814Y2083D02*
X1880Y2083D01*
X414Y2082D02*
X481Y2082D01*
X514Y2082D02*
X581Y2082D01*
X614Y2082D02*
X681Y2082D01*
X714Y2082D02*
X780Y2082D01*
X814Y2082D02*
X881Y2082D01*
X914Y2082D02*
X981Y2082D01*
X1014Y2082D02*
X1081Y2082D01*
X1114Y2082D02*
X1181Y2082D01*
X1214Y2082D02*
X1281Y2082D01*
X1314Y2082D02*
X1381Y2082D01*
X1414Y2082D02*
X1481Y2082D01*
X1514Y2082D02*
X1581Y2082D01*
X1614Y2082D02*
X1680Y2082D01*
X1714Y2082D02*
X1780Y2082D01*
X1814Y2082D02*
X1880Y2082D01*
X414Y2081D02*
X441Y2081D01*
X454Y2081D02*
X481Y2081D01*
X514Y2081D02*
X541Y2081D01*
X554Y2081D02*
X581Y2081D01*
X613Y2081D02*
X641Y2081D01*
X654Y2081D02*
X681Y2081D01*
X713Y2081D02*
X740Y2081D01*
X754Y2081D02*
X781Y2081D01*
X814Y2081D02*
X841Y2081D01*
X854Y2081D02*
X881Y2081D01*
X914Y2081D02*
X941Y2081D01*
X954Y2081D02*
X981Y2081D01*
X1014Y2081D02*
X1041Y2081D01*
X1054Y2081D02*
X1081Y2081D01*
X1114Y2081D02*
X1141Y2081D01*
X1154Y2081D02*
X1181Y2081D01*
X1214Y2081D02*
X1241Y2081D01*
X1254Y2081D02*
X1281Y2081D01*
X1314Y2081D02*
X1341Y2081D01*
X1354Y2081D02*
X1381Y2081D01*
X1413Y2081D02*
X1441Y2081D01*
X1454Y2081D02*
X1481Y2081D01*
X1513Y2081D02*
X1541Y2081D01*
X1554Y2081D02*
X1581Y2081D01*
X1613Y2081D02*
X1640Y2081D01*
X1654Y2081D02*
X1681Y2081D01*
X1713Y2081D02*
X1740Y2081D01*
X1754Y2081D02*
X1781Y2081D01*
X1813Y2081D02*
X1840Y2081D01*
X1854Y2081D02*
X1881Y2081D01*
X413Y2080D02*
X439Y2080D01*
X457Y2080D02*
X482Y2080D01*
X513Y2080D02*
X538Y2080D01*
X557Y2080D02*
X582Y2080D01*
X613Y2080D02*
X638Y2080D01*
X656Y2080D02*
X682Y2080D01*
X713Y2080D02*
X738Y2080D01*
X756Y2080D02*
X781Y2080D01*
X813Y2080D02*
X838Y2080D01*
X857Y2080D02*
X882Y2080D01*
X913Y2080D02*
X938Y2080D01*
X957Y2080D02*
X982Y2080D01*
X1013Y2080D02*
X1038Y2080D01*
X1057Y2080D02*
X1082Y2080D01*
X1113Y2080D02*
X1138Y2080D01*
X1156Y2080D02*
X1182Y2080D01*
X1213Y2080D02*
X1238Y2080D01*
X1256Y2080D02*
X1282Y2080D01*
X1313Y2080D02*
X1338Y2080D01*
X1356Y2080D02*
X1382Y2080D01*
X1413Y2080D02*
X1438Y2080D01*
X1456Y2080D02*
X1482Y2080D01*
X1513Y2080D02*
X1538Y2080D01*
X1556Y2080D02*
X1582Y2080D01*
X1613Y2080D02*
X1638Y2080D01*
X1656Y2080D02*
X1681Y2080D01*
X1713Y2080D02*
X1738Y2080D01*
X1756Y2080D02*
X1781Y2080D01*
X1813Y2080D02*
X1838Y2080D01*
X1856Y2080D02*
X1881Y2080D01*
X413Y2079D02*
X437Y2079D01*
X458Y2079D02*
X482Y2079D01*
X513Y2079D02*
X537Y2079D01*
X558Y2079D02*
X582Y2079D01*
X613Y2079D02*
X636Y2079D01*
X658Y2079D02*
X682Y2079D01*
X712Y2079D02*
X736Y2079D01*
X758Y2079D02*
X782Y2079D01*
X813Y2079D02*
X837Y2079D01*
X858Y2079D02*
X882Y2079D01*
X913Y2079D02*
X937Y2079D01*
X958Y2079D02*
X982Y2079D01*
X1013Y2079D02*
X1037Y2079D01*
X1058Y2079D02*
X1082Y2079D01*
X1113Y2079D02*
X1137Y2079D01*
X1158Y2079D02*
X1182Y2079D01*
X1213Y2079D02*
X1237Y2079D01*
X1258Y2079D02*
X1282Y2079D01*
X1313Y2079D02*
X1336Y2079D01*
X1358Y2079D02*
X1382Y2079D01*
X1413Y2079D02*
X1436Y2079D01*
X1458Y2079D02*
X1482Y2079D01*
X1512Y2079D02*
X1536Y2079D01*
X1558Y2079D02*
X1582Y2079D01*
X1612Y2079D02*
X1636Y2079D01*
X1658Y2079D02*
X1682Y2079D01*
X1712Y2079D02*
X1736Y2079D01*
X1758Y2079D02*
X1782Y2079D01*
X1812Y2079D02*
X1836Y2079D01*
X1858Y2079D02*
X1882Y2079D01*
X412Y2078D02*
X436Y2078D01*
X460Y2078D02*
X483Y2078D01*
X512Y2078D02*
X535Y2078D01*
X560Y2078D02*
X583Y2078D01*
X612Y2078D02*
X635Y2078D01*
X659Y2078D02*
X682Y2078D01*
X712Y2078D02*
X735Y2078D01*
X759Y2078D02*
X782Y2078D01*
X812Y2078D02*
X835Y2078D01*
X860Y2078D02*
X883Y2078D01*
X912Y2078D02*
X935Y2078D01*
X960Y2078D02*
X983Y2078D01*
X1012Y2078D02*
X1035Y2078D01*
X1060Y2078D02*
X1083Y2078D01*
X1112Y2078D02*
X1135Y2078D01*
X1159Y2078D02*
X1183Y2078D01*
X1212Y2078D02*
X1235Y2078D01*
X1259Y2078D02*
X1283Y2078D01*
X1312Y2078D02*
X1335Y2078D01*
X1359Y2078D02*
X1383Y2078D01*
X1412Y2078D02*
X1435Y2078D01*
X1459Y2078D02*
X1482Y2078D01*
X1512Y2078D02*
X1535Y2078D01*
X1559Y2078D02*
X1582Y2078D01*
X1612Y2078D02*
X1635Y2078D01*
X1659Y2078D02*
X1682Y2078D01*
X1712Y2078D02*
X1735Y2078D01*
X1759Y2078D02*
X1782Y2078D01*
X1812Y2078D02*
X1835Y2078D01*
X1859Y2078D02*
X1882Y2078D01*
X412Y2077D02*
X434Y2077D01*
X461Y2077D02*
X483Y2077D01*
X512Y2077D02*
X534Y2077D01*
X561Y2077D02*
X583Y2077D01*
X612Y2077D02*
X634Y2077D01*
X660Y2077D02*
X683Y2077D01*
X711Y2077D02*
X734Y2077D01*
X760Y2077D02*
X783Y2077D01*
X812Y2077D02*
X834Y2077D01*
X861Y2077D02*
X883Y2077D01*
X912Y2077D02*
X934Y2077D01*
X961Y2077D02*
X983Y2077D01*
X1012Y2077D02*
X1034Y2077D01*
X1061Y2077D02*
X1083Y2077D01*
X1112Y2077D02*
X1134Y2077D01*
X1161Y2077D02*
X1183Y2077D01*
X1212Y2077D02*
X1234Y2077D01*
X1261Y2077D02*
X1283Y2077D01*
X1312Y2077D02*
X1334Y2077D01*
X1361Y2077D02*
X1383Y2077D01*
X1412Y2077D02*
X1434Y2077D01*
X1461Y2077D02*
X1483Y2077D01*
X1512Y2077D02*
X1534Y2077D01*
X1560Y2077D02*
X1583Y2077D01*
X1612Y2077D02*
X1634Y2077D01*
X1660Y2077D02*
X1683Y2077D01*
X1712Y2077D02*
X1734Y2077D01*
X1760Y2077D02*
X1783Y2077D01*
X1812Y2077D02*
X1834Y2077D01*
X1860Y2077D02*
X1883Y2077D01*
X412Y2076D02*
X433Y2076D01*
X462Y2076D02*
X484Y2076D01*
X511Y2076D02*
X533Y2076D01*
X562Y2076D02*
X583Y2076D01*
X611Y2076D02*
X633Y2076D01*
X662Y2076D02*
X683Y2076D01*
X711Y2076D02*
X733Y2076D01*
X761Y2076D02*
X783Y2076D01*
X812Y2076D02*
X833Y2076D01*
X862Y2076D02*
X883Y2076D01*
X912Y2076D02*
X933Y2076D01*
X962Y2076D02*
X983Y2076D01*
X1011Y2076D02*
X1033Y2076D01*
X1062Y2076D02*
X1083Y2076D01*
X1111Y2076D02*
X1133Y2076D01*
X1162Y2076D02*
X1183Y2076D01*
X1211Y2076D02*
X1233Y2076D01*
X1262Y2076D02*
X1283Y2076D01*
X1311Y2076D02*
X1333Y2076D01*
X1362Y2076D02*
X1383Y2076D01*
X1411Y2076D02*
X1433Y2076D01*
X1462Y2076D02*
X1483Y2076D01*
X1511Y2076D02*
X1533Y2076D01*
X1562Y2076D02*
X1583Y2076D01*
X1611Y2076D02*
X1633Y2076D01*
X1661Y2076D02*
X1683Y2076D01*
X1711Y2076D02*
X1733Y2076D01*
X1761Y2076D02*
X1783Y2076D01*
X1811Y2076D02*
X1833Y2076D01*
X1861Y2076D02*
X1883Y2076D01*
X411Y2075D02*
X433Y2075D01*
X463Y2075D02*
X484Y2075D01*
X511Y2075D02*
X532Y2075D01*
X563Y2075D02*
X584Y2075D01*
X611Y2075D02*
X632Y2075D01*
X662Y2075D02*
X684Y2075D01*
X711Y2075D02*
X732Y2075D01*
X762Y2075D02*
X783Y2075D01*
X811Y2075D02*
X832Y2075D01*
X863Y2075D02*
X884Y2075D01*
X911Y2075D02*
X932Y2075D01*
X963Y2075D02*
X984Y2075D01*
X1011Y2075D02*
X1032Y2075D01*
X1063Y2075D02*
X1084Y2075D01*
X1111Y2075D02*
X1132Y2075D01*
X1163Y2075D02*
X1184Y2075D01*
X1211Y2075D02*
X1232Y2075D01*
X1262Y2075D02*
X1284Y2075D01*
X1311Y2075D02*
X1332Y2075D01*
X1362Y2075D02*
X1384Y2075D01*
X1411Y2075D02*
X1432Y2075D01*
X1462Y2075D02*
X1484Y2075D01*
X1511Y2075D02*
X1532Y2075D01*
X1562Y2075D02*
X1584Y2075D01*
X1611Y2075D02*
X1632Y2075D01*
X1662Y2075D02*
X1684Y2075D01*
X1711Y2075D02*
X1732Y2075D01*
X1762Y2075D02*
X1784Y2075D01*
X1811Y2075D02*
X1832Y2075D01*
X1862Y2075D02*
X1883Y2075D01*
X411Y2074D02*
X432Y2074D01*
X464Y2074D02*
X484Y2074D01*
X511Y2074D02*
X531Y2074D01*
X563Y2074D02*
X584Y2074D01*
X611Y2074D02*
X631Y2074D01*
X663Y2074D02*
X684Y2074D01*
X710Y2074D02*
X731Y2074D01*
X763Y2074D02*
X784Y2074D01*
X811Y2074D02*
X832Y2074D01*
X864Y2074D02*
X884Y2074D01*
X911Y2074D02*
X931Y2074D01*
X963Y2074D02*
X984Y2074D01*
X1011Y2074D02*
X1031Y2074D01*
X1063Y2074D02*
X1084Y2074D01*
X1111Y2074D02*
X1131Y2074D01*
X1163Y2074D02*
X1184Y2074D01*
X1211Y2074D02*
X1231Y2074D01*
X1263Y2074D02*
X1284Y2074D01*
X1311Y2074D02*
X1331Y2074D01*
X1363Y2074D02*
X1384Y2074D01*
X1411Y2074D02*
X1431Y2074D01*
X1463Y2074D02*
X1484Y2074D01*
X1511Y2074D02*
X1531Y2074D01*
X1563Y2074D02*
X1584Y2074D01*
X1611Y2074D02*
X1631Y2074D01*
X1663Y2074D02*
X1684Y2074D01*
X1711Y2074D02*
X1731Y2074D01*
X1763Y2074D02*
X1784Y2074D01*
X1810Y2074D02*
X1831Y2074D01*
X1863Y2074D02*
X1884Y2074D01*
X411Y2073D02*
X431Y2073D01*
X464Y2073D02*
X485Y2073D01*
X511Y2073D02*
X531Y2073D01*
X564Y2073D02*
X584Y2073D01*
X610Y2073D02*
X631Y2073D01*
X664Y2073D02*
X684Y2073D01*
X710Y2073D02*
X730Y2073D01*
X764Y2073D02*
X784Y2073D01*
X811Y2073D02*
X831Y2073D01*
X864Y2073D02*
X884Y2073D01*
X911Y2073D02*
X931Y2073D01*
X964Y2073D02*
X984Y2073D01*
X1011Y2073D02*
X1031Y2073D01*
X1064Y2073D02*
X1084Y2073D01*
X1110Y2073D02*
X1131Y2073D01*
X1164Y2073D02*
X1184Y2073D01*
X1210Y2073D02*
X1231Y2073D01*
X1264Y2073D02*
X1284Y2073D01*
X1310Y2073D02*
X1331Y2073D01*
X1364Y2073D02*
X1384Y2073D01*
X1410Y2073D02*
X1431Y2073D01*
X1464Y2073D02*
X1484Y2073D01*
X1510Y2073D02*
X1531Y2073D01*
X1564Y2073D02*
X1584Y2073D01*
X1610Y2073D02*
X1630Y2073D01*
X1664Y2073D02*
X1684Y2073D01*
X1710Y2073D02*
X1730Y2073D01*
X1764Y2073D02*
X1784Y2073D01*
X1810Y2073D02*
X1830Y2073D01*
X1864Y2073D02*
X1884Y2073D01*
X410Y2072D02*
X430Y2072D01*
X465Y2072D02*
X485Y2072D01*
X510Y2072D02*
X530Y2072D01*
X565Y2072D02*
X585Y2072D01*
X610Y2072D02*
X630Y2072D01*
X665Y2072D02*
X684Y2072D01*
X710Y2072D02*
X730Y2072D01*
X764Y2072D02*
X784Y2072D01*
X810Y2072D02*
X830Y2072D01*
X865Y2072D02*
X885Y2072D01*
X910Y2072D02*
X930Y2072D01*
X965Y2072D02*
X985Y2072D01*
X1010Y2072D02*
X1030Y2072D01*
X1065Y2072D02*
X1085Y2072D01*
X1110Y2072D02*
X1130Y2072D01*
X1165Y2072D02*
X1185Y2072D01*
X1210Y2072D02*
X1230Y2072D01*
X1265Y2072D02*
X1285Y2072D01*
X1310Y2072D02*
X1330Y2072D01*
X1365Y2072D02*
X1385Y2072D01*
X1410Y2072D02*
X1430Y2072D01*
X1465Y2072D02*
X1484Y2072D01*
X1510Y2072D02*
X1530Y2072D01*
X1565Y2072D02*
X1584Y2072D01*
X1610Y2072D02*
X1630Y2072D01*
X1664Y2072D02*
X1684Y2072D01*
X1710Y2072D02*
X1730Y2072D01*
X1764Y2072D02*
X1784Y2072D01*
X1810Y2072D02*
X1830Y2072D01*
X1864Y2072D02*
X1884Y2072D01*
X410Y2071D02*
X430Y2071D01*
X466Y2071D02*
X485Y2071D01*
X510Y2071D02*
X530Y2071D01*
X565Y2071D02*
X585Y2071D01*
X610Y2071D02*
X629Y2071D01*
X665Y2071D02*
X685Y2071D01*
X710Y2071D02*
X729Y2071D01*
X765Y2071D02*
X785Y2071D01*
X810Y2071D02*
X830Y2071D01*
X865Y2071D02*
X885Y2071D01*
X910Y2071D02*
X930Y2071D01*
X965Y2071D02*
X985Y2071D01*
X1010Y2071D02*
X1030Y2071D01*
X1065Y2071D02*
X1085Y2071D01*
X1110Y2071D02*
X1130Y2071D01*
X1165Y2071D02*
X1185Y2071D01*
X1210Y2071D02*
X1230Y2071D01*
X1265Y2071D02*
X1285Y2071D01*
X1310Y2071D02*
X1329Y2071D01*
X1365Y2071D02*
X1385Y2071D01*
X1410Y2071D02*
X1429Y2071D01*
X1465Y2071D02*
X1485Y2071D01*
X1510Y2071D02*
X1529Y2071D01*
X1565Y2071D02*
X1585Y2071D01*
X1610Y2071D02*
X1629Y2071D01*
X1665Y2071D02*
X1685Y2071D01*
X1710Y2071D02*
X1729Y2071D01*
X1765Y2071D02*
X1785Y2071D01*
X1810Y2071D02*
X1829Y2071D01*
X1865Y2071D02*
X1885Y2071D01*
X410Y2070D02*
X429Y2070D01*
X466Y2070D02*
X485Y2070D01*
X510Y2070D02*
X529Y2070D01*
X566Y2070D02*
X585Y2070D01*
X610Y2070D02*
X629Y2070D01*
X666Y2070D02*
X685Y2070D01*
X709Y2070D02*
X729Y2070D01*
X765Y2070D02*
X785Y2070D01*
X810Y2070D02*
X829Y2070D01*
X866Y2070D02*
X885Y2070D01*
X910Y2070D02*
X929Y2070D01*
X966Y2070D02*
X985Y2070D01*
X1010Y2070D02*
X1029Y2070D01*
X1066Y2070D02*
X1085Y2070D01*
X1110Y2070D02*
X1129Y2070D01*
X1166Y2070D02*
X1185Y2070D01*
X1210Y2070D02*
X1229Y2070D01*
X1266Y2070D02*
X1285Y2070D01*
X1310Y2070D02*
X1329Y2070D01*
X1366Y2070D02*
X1385Y2070D01*
X1410Y2070D02*
X1429Y2070D01*
X1466Y2070D02*
X1485Y2070D01*
X1510Y2070D02*
X1529Y2070D01*
X1566Y2070D02*
X1585Y2070D01*
X1610Y2070D02*
X1629Y2070D01*
X1666Y2070D02*
X1685Y2070D01*
X1710Y2070D02*
X1729Y2070D01*
X1765Y2070D02*
X1785Y2070D01*
X1809Y2070D02*
X1829Y2070D01*
X1865Y2070D02*
X1885Y2070D01*
X410Y2069D02*
X429Y2069D01*
X466Y2069D02*
X486Y2069D01*
X510Y2069D02*
X529Y2069D01*
X566Y2069D02*
X585Y2069D01*
X609Y2069D02*
X629Y2069D01*
X666Y2069D02*
X685Y2069D01*
X709Y2069D02*
X729Y2069D01*
X766Y2069D02*
X785Y2069D01*
X810Y2069D02*
X829Y2069D01*
X866Y2069D02*
X885Y2069D01*
X910Y2069D02*
X929Y2069D01*
X966Y2069D02*
X985Y2069D01*
X1010Y2069D02*
X1029Y2069D01*
X1066Y2069D02*
X1085Y2069D01*
X1110Y2069D02*
X1129Y2069D01*
X1166Y2069D02*
X1185Y2069D01*
X1210Y2069D02*
X1229Y2069D01*
X1266Y2069D02*
X1285Y2069D01*
X1309Y2069D02*
X1329Y2069D01*
X1366Y2069D02*
X1385Y2069D01*
X1409Y2069D02*
X1429Y2069D01*
X1466Y2069D02*
X1485Y2069D01*
X1509Y2069D02*
X1529Y2069D01*
X1566Y2069D02*
X1585Y2069D01*
X1609Y2069D02*
X1629Y2069D01*
X1666Y2069D02*
X1685Y2069D01*
X1709Y2069D02*
X1729Y2069D01*
X1766Y2069D02*
X1785Y2069D01*
X1809Y2069D02*
X1829Y2069D01*
X1866Y2069D02*
X1885Y2069D01*
X410Y2068D02*
X429Y2068D01*
X467Y2068D02*
X486Y2068D01*
X509Y2068D02*
X529Y2068D01*
X566Y2068D02*
X585Y2068D01*
X609Y2068D02*
X628Y2068D01*
X666Y2068D02*
X685Y2068D01*
X709Y2068D02*
X728Y2068D01*
X766Y2068D02*
X785Y2068D01*
X810Y2068D02*
X829Y2068D01*
X866Y2068D02*
X886Y2068D01*
X909Y2068D02*
X929Y2068D01*
X966Y2068D02*
X985Y2068D01*
X1009Y2068D02*
X1029Y2068D01*
X1066Y2068D02*
X1085Y2068D01*
X1109Y2068D02*
X1129Y2068D01*
X1166Y2068D02*
X1185Y2068D01*
X1209Y2068D02*
X1228Y2068D01*
X1266Y2068D02*
X1285Y2068D01*
X1309Y2068D02*
X1328Y2068D01*
X1366Y2068D02*
X1385Y2068D01*
X1409Y2068D02*
X1428Y2068D01*
X1466Y2068D02*
X1485Y2068D01*
X1509Y2068D02*
X1528Y2068D01*
X1566Y2068D02*
X1585Y2068D01*
X1609Y2068D02*
X1628Y2068D01*
X1666Y2068D02*
X1685Y2068D01*
X1709Y2068D02*
X1728Y2068D01*
X1766Y2068D02*
X1785Y2068D01*
X1809Y2068D02*
X1828Y2068D01*
X1866Y2068D02*
X1885Y2068D01*
X409Y2067D02*
X429Y2067D01*
X467Y2067D02*
X486Y2067D01*
X509Y2067D02*
X528Y2067D01*
X567Y2067D02*
X586Y2067D01*
X609Y2067D02*
X628Y2067D01*
X666Y2067D02*
X685Y2067D01*
X709Y2067D02*
X728Y2067D01*
X766Y2067D02*
X785Y2067D01*
X809Y2067D02*
X828Y2067D01*
X867Y2067D02*
X886Y2067D01*
X909Y2067D02*
X928Y2067D01*
X967Y2067D02*
X986Y2067D01*
X1009Y2067D02*
X1028Y2067D01*
X1067Y2067D02*
X1086Y2067D01*
X1109Y2067D02*
X1128Y2067D01*
X1167Y2067D02*
X1186Y2067D01*
X1209Y2067D02*
X1228Y2067D01*
X1266Y2067D02*
X1286Y2067D01*
X1309Y2067D02*
X1328Y2067D01*
X1366Y2067D02*
X1385Y2067D01*
X1409Y2067D02*
X1428Y2067D01*
X1466Y2067D02*
X1485Y2067D01*
X1509Y2067D02*
X1528Y2067D01*
X1566Y2067D02*
X1585Y2067D01*
X1609Y2067D02*
X1628Y2067D01*
X1666Y2067D02*
X1685Y2067D01*
X1709Y2067D02*
X1728Y2067D01*
X1766Y2067D02*
X1785Y2067D01*
X1809Y2067D02*
X1828Y2067D01*
X1866Y2067D02*
X1885Y2067D01*
X409Y2066D02*
X428Y2066D01*
X467Y2066D02*
X486Y2066D01*
X509Y2066D02*
X528Y2066D01*
X567Y2066D02*
X586Y2066D01*
X609Y2066D02*
X628Y2066D01*
X667Y2066D02*
X686Y2066D01*
X709Y2066D02*
X728Y2066D01*
X766Y2066D02*
X785Y2066D01*
X809Y2066D02*
X828Y2066D01*
X867Y2066D02*
X886Y2066D01*
X909Y2066D02*
X928Y2066D01*
X967Y2066D02*
X986Y2066D01*
X1009Y2066D02*
X1028Y2066D01*
X1067Y2066D02*
X1086Y2066D01*
X1109Y2066D02*
X1128Y2066D01*
X1167Y2066D02*
X1186Y2066D01*
X1209Y2066D02*
X1228Y2066D01*
X1267Y2066D02*
X1286Y2066D01*
X1309Y2066D02*
X1328Y2066D01*
X1367Y2066D02*
X1386Y2066D01*
X1409Y2066D02*
X1428Y2066D01*
X1467Y2066D02*
X1486Y2066D01*
X1509Y2066D02*
X1528Y2066D01*
X1566Y2066D02*
X1586Y2066D01*
X1609Y2066D02*
X1628Y2066D01*
X1666Y2066D02*
X1685Y2066D01*
X1709Y2066D02*
X1728Y2066D01*
X1766Y2066D02*
X1785Y2066D01*
X1809Y2066D02*
X1828Y2066D01*
X1866Y2066D02*
X1885Y2066D01*
X409Y2065D02*
X428Y2065D01*
X467Y2065D02*
X486Y2065D01*
X509Y2065D02*
X528Y2065D01*
X567Y2065D02*
X586Y2065D01*
X609Y2065D02*
X628Y2065D01*
X667Y2065D02*
X686Y2065D01*
X709Y2065D02*
X728Y2065D01*
X766Y2065D02*
X785Y2065D01*
X809Y2065D02*
X828Y2065D01*
X867Y2065D02*
X886Y2065D01*
X909Y2065D02*
X928Y2065D01*
X967Y2065D02*
X986Y2065D01*
X1009Y2065D02*
X1028Y2065D01*
X1067Y2065D02*
X1086Y2065D01*
X1109Y2065D02*
X1128Y2065D01*
X1167Y2065D02*
X1186Y2065D01*
X1209Y2065D02*
X1228Y2065D01*
X1267Y2065D02*
X1286Y2065D01*
X1309Y2065D02*
X1328Y2065D01*
X1367Y2065D02*
X1386Y2065D01*
X1409Y2065D02*
X1428Y2065D01*
X1467Y2065D02*
X1486Y2065D01*
X1509Y2065D02*
X1528Y2065D01*
X1567Y2065D02*
X1586Y2065D01*
X1609Y2065D02*
X1628Y2065D01*
X1667Y2065D02*
X1686Y2065D01*
X1709Y2065D02*
X1728Y2065D01*
X1766Y2065D02*
X1785Y2065D01*
X1809Y2065D02*
X1828Y2065D01*
X1866Y2065D02*
X1885Y2065D01*
X409Y2064D02*
X428Y2064D01*
X467Y2064D02*
X486Y2064D01*
X509Y2064D02*
X528Y2064D01*
X567Y2064D02*
X586Y2064D01*
X609Y2064D02*
X628Y2064D01*
X667Y2064D02*
X686Y2064D01*
X709Y2064D02*
X728Y2064D01*
X766Y2064D02*
X785Y2064D01*
X809Y2064D02*
X828Y2064D01*
X867Y2064D02*
X886Y2064D01*
X909Y2064D02*
X928Y2064D01*
X967Y2064D02*
X986Y2064D01*
X1009Y2064D02*
X1028Y2064D01*
X1067Y2064D02*
X1086Y2064D01*
X1109Y2064D02*
X1128Y2064D01*
X1167Y2064D02*
X1186Y2064D01*
X1209Y2064D02*
X1228Y2064D01*
X1267Y2064D02*
X1286Y2064D01*
X1309Y2064D02*
X1328Y2064D01*
X1367Y2064D02*
X1386Y2064D01*
X1409Y2064D02*
X1428Y2064D01*
X1467Y2064D02*
X1486Y2064D01*
X1509Y2064D02*
X1528Y2064D01*
X1567Y2064D02*
X1586Y2064D01*
X1609Y2064D02*
X1628Y2064D01*
X1667Y2064D02*
X1686Y2064D01*
X1709Y2064D02*
X1728Y2064D01*
X1767Y2064D02*
X1786Y2064D01*
X1809Y2064D02*
X1828Y2064D01*
X1867Y2064D02*
X1886Y2064D01*
X409Y2063D02*
X428Y2063D01*
X467Y2063D02*
X486Y2063D01*
X509Y2063D02*
X528Y2063D01*
X567Y2063D02*
X586Y2063D01*
X609Y2063D02*
X628Y2063D01*
X667Y2063D02*
X686Y2063D01*
X709Y2063D02*
X728Y2063D01*
X767Y2063D02*
X785Y2063D01*
X809Y2063D02*
X828Y2063D01*
X867Y2063D02*
X886Y2063D01*
X909Y2063D02*
X928Y2063D01*
X967Y2063D02*
X986Y2063D01*
X1009Y2063D02*
X1028Y2063D01*
X1067Y2063D02*
X1086Y2063D01*
X1109Y2063D02*
X1128Y2063D01*
X1167Y2063D02*
X1186Y2063D01*
X1209Y2063D02*
X1228Y2063D01*
X1267Y2063D02*
X1286Y2063D01*
X1309Y2063D02*
X1328Y2063D01*
X1367Y2063D02*
X1386Y2063D01*
X1409Y2063D02*
X1428Y2063D01*
X1467Y2063D02*
X1486Y2063D01*
X1509Y2063D02*
X1528Y2063D01*
X1567Y2063D02*
X1586Y2063D01*
X1609Y2063D02*
X1628Y2063D01*
X1667Y2063D02*
X1686Y2063D01*
X1709Y2063D02*
X1728Y2063D01*
X1767Y2063D02*
X1786Y2063D01*
X1809Y2063D02*
X1828Y2063D01*
X1867Y2063D02*
X1886Y2063D01*
X409Y2062D02*
X428Y2062D01*
X467Y2062D02*
X486Y2062D01*
X509Y2062D02*
X528Y2062D01*
X567Y2062D02*
X586Y2062D01*
X609Y2062D02*
X628Y2062D01*
X667Y2062D02*
X686Y2062D01*
X709Y2062D02*
X728Y2062D01*
X766Y2062D02*
X785Y2062D01*
X809Y2062D02*
X828Y2062D01*
X867Y2062D02*
X886Y2062D01*
X909Y2062D02*
X928Y2062D01*
X967Y2062D02*
X986Y2062D01*
X1009Y2062D02*
X1028Y2062D01*
X1067Y2062D02*
X1086Y2062D01*
X1109Y2062D02*
X1128Y2062D01*
X1167Y2062D02*
X1186Y2062D01*
X1209Y2062D02*
X1228Y2062D01*
X1267Y2062D02*
X1286Y2062D01*
X1309Y2062D02*
X1328Y2062D01*
X1367Y2062D02*
X1386Y2062D01*
X1409Y2062D02*
X1428Y2062D01*
X1467Y2062D02*
X1486Y2062D01*
X1509Y2062D02*
X1528Y2062D01*
X1567Y2062D02*
X1586Y2062D01*
X1609Y2062D02*
X1628Y2062D01*
X1667Y2062D02*
X1686Y2062D01*
X1709Y2062D02*
X1728Y2062D01*
X1767Y2062D02*
X1786Y2062D01*
X1809Y2062D02*
X1828Y2062D01*
X1867Y2062D02*
X1886Y2062D01*
X409Y2061D02*
X428Y2061D01*
X467Y2061D02*
X486Y2061D01*
X509Y2061D02*
X528Y2061D01*
X567Y2061D02*
X586Y2061D01*
X609Y2061D02*
X628Y2061D01*
X667Y2061D02*
X686Y2061D01*
X709Y2061D02*
X728Y2061D01*
X766Y2061D02*
X785Y2061D01*
X809Y2061D02*
X828Y2061D01*
X867Y2061D02*
X886Y2061D01*
X909Y2061D02*
X928Y2061D01*
X967Y2061D02*
X986Y2061D01*
X1009Y2061D02*
X1028Y2061D01*
X1067Y2061D02*
X1086Y2061D01*
X1109Y2061D02*
X1128Y2061D01*
X1167Y2061D02*
X1186Y2061D01*
X1209Y2061D02*
X1228Y2061D01*
X1267Y2061D02*
X1286Y2061D01*
X1309Y2061D02*
X1328Y2061D01*
X1367Y2061D02*
X1386Y2061D01*
X1409Y2061D02*
X1428Y2061D01*
X1467Y2061D02*
X1486Y2061D01*
X1509Y2061D02*
X1528Y2061D01*
X1567Y2061D02*
X1586Y2061D01*
X1609Y2061D02*
X1628Y2061D01*
X1667Y2061D02*
X1686Y2061D01*
X1709Y2061D02*
X1728Y2061D01*
X1766Y2061D02*
X1785Y2061D01*
X1809Y2061D02*
X1828Y2061D01*
X1866Y2061D02*
X1885Y2061D01*
X409Y2060D02*
X428Y2060D01*
X467Y2060D02*
X486Y2060D01*
X509Y2060D02*
X528Y2060D01*
X567Y2060D02*
X586Y2060D01*
X609Y2060D02*
X628Y2060D01*
X667Y2060D02*
X686Y2060D01*
X709Y2060D02*
X728Y2060D01*
X766Y2060D02*
X785Y2060D01*
X809Y2060D02*
X828Y2060D01*
X867Y2060D02*
X886Y2060D01*
X909Y2060D02*
X928Y2060D01*
X967Y2060D02*
X986Y2060D01*
X1009Y2060D02*
X1028Y2060D01*
X1067Y2060D02*
X1086Y2060D01*
X1109Y2060D02*
X1128Y2060D01*
X1167Y2060D02*
X1186Y2060D01*
X1209Y2060D02*
X1228Y2060D01*
X1267Y2060D02*
X1286Y2060D01*
X1309Y2060D02*
X1328Y2060D01*
X1367Y2060D02*
X1386Y2060D01*
X1409Y2060D02*
X1428Y2060D01*
X1467Y2060D02*
X1486Y2060D01*
X1509Y2060D02*
X1528Y2060D01*
X1566Y2060D02*
X1585Y2060D01*
X1609Y2060D02*
X1628Y2060D01*
X1666Y2060D02*
X1685Y2060D01*
X1709Y2060D02*
X1728Y2060D01*
X1766Y2060D02*
X1785Y2060D01*
X1809Y2060D02*
X1828Y2060D01*
X1866Y2060D02*
X1885Y2060D01*
X409Y2059D02*
X429Y2059D01*
X467Y2059D02*
X486Y2059D01*
X509Y2059D02*
X528Y2059D01*
X567Y2059D02*
X586Y2059D01*
X609Y2059D02*
X628Y2059D01*
X666Y2059D02*
X685Y2059D01*
X709Y2059D02*
X728Y2059D01*
X766Y2059D02*
X785Y2059D01*
X809Y2059D02*
X828Y2059D01*
X867Y2059D02*
X886Y2059D01*
X909Y2059D02*
X928Y2059D01*
X967Y2059D02*
X986Y2059D01*
X1009Y2059D02*
X1028Y2059D01*
X1067Y2059D02*
X1086Y2059D01*
X1109Y2059D02*
X1128Y2059D01*
X1167Y2059D02*
X1186Y2059D01*
X1209Y2059D02*
X1228Y2059D01*
X1266Y2059D02*
X1286Y2059D01*
X1309Y2059D02*
X1328Y2059D01*
X1366Y2059D02*
X1385Y2059D01*
X1409Y2059D02*
X1428Y2059D01*
X1466Y2059D02*
X1485Y2059D01*
X1509Y2059D02*
X1528Y2059D01*
X1566Y2059D02*
X1585Y2059D01*
X1609Y2059D02*
X1628Y2059D01*
X1666Y2059D02*
X1685Y2059D01*
X1709Y2059D02*
X1728Y2059D01*
X1766Y2059D02*
X1785Y2059D01*
X1809Y2059D02*
X1828Y2059D01*
X1866Y2059D02*
X1885Y2059D01*
X410Y2058D02*
X429Y2058D01*
X467Y2058D02*
X486Y2058D01*
X509Y2058D02*
X529Y2058D01*
X566Y2058D02*
X585Y2058D01*
X609Y2058D02*
X628Y2058D01*
X666Y2058D02*
X685Y2058D01*
X709Y2058D02*
X728Y2058D01*
X766Y2058D02*
X785Y2058D01*
X810Y2058D02*
X829Y2058D01*
X866Y2058D02*
X886Y2058D01*
X909Y2058D02*
X929Y2058D01*
X966Y2058D02*
X985Y2058D01*
X1009Y2058D02*
X1029Y2058D01*
X1066Y2058D02*
X1085Y2058D01*
X1109Y2058D02*
X1129Y2058D01*
X1166Y2058D02*
X1185Y2058D01*
X1209Y2058D02*
X1228Y2058D01*
X1266Y2058D02*
X1285Y2058D01*
X1309Y2058D02*
X1328Y2058D01*
X1366Y2058D02*
X1385Y2058D01*
X1409Y2058D02*
X1428Y2058D01*
X1466Y2058D02*
X1485Y2058D01*
X1509Y2058D02*
X1528Y2058D01*
X1566Y2058D02*
X1585Y2058D01*
X1609Y2058D02*
X1628Y2058D01*
X1666Y2058D02*
X1685Y2058D01*
X1709Y2058D02*
X1728Y2058D01*
X1766Y2058D02*
X1785Y2058D01*
X1809Y2058D02*
X1828Y2058D01*
X1866Y2058D02*
X1885Y2058D01*
X410Y2057D02*
X429Y2057D01*
X466Y2057D02*
X485Y2057D01*
X510Y2057D02*
X529Y2057D01*
X566Y2057D02*
X585Y2057D01*
X609Y2057D02*
X629Y2057D01*
X666Y2057D02*
X685Y2057D01*
X709Y2057D02*
X729Y2057D01*
X766Y2057D02*
X785Y2057D01*
X810Y2057D02*
X829Y2057D01*
X866Y2057D02*
X885Y2057D01*
X910Y2057D02*
X929Y2057D01*
X966Y2057D02*
X985Y2057D01*
X1010Y2057D02*
X1029Y2057D01*
X1066Y2057D02*
X1085Y2057D01*
X1110Y2057D02*
X1129Y2057D01*
X1166Y2057D02*
X1185Y2057D01*
X1210Y2057D02*
X1229Y2057D01*
X1266Y2057D02*
X1285Y2057D01*
X1309Y2057D02*
X1329Y2057D01*
X1366Y2057D02*
X1385Y2057D01*
X1409Y2057D02*
X1429Y2057D01*
X1466Y2057D02*
X1485Y2057D01*
X1509Y2057D02*
X1529Y2057D01*
X1566Y2057D02*
X1585Y2057D01*
X1609Y2057D02*
X1629Y2057D01*
X1666Y2057D02*
X1685Y2057D01*
X1709Y2057D02*
X1729Y2057D01*
X1766Y2057D02*
X1785Y2057D01*
X1809Y2057D02*
X1829Y2057D01*
X1866Y2057D02*
X1885Y2057D01*
X410Y2056D02*
X429Y2056D01*
X466Y2056D02*
X485Y2056D01*
X510Y2056D02*
X529Y2056D01*
X566Y2056D02*
X585Y2056D01*
X610Y2056D02*
X629Y2056D01*
X666Y2056D02*
X685Y2056D01*
X709Y2056D02*
X729Y2056D01*
X765Y2056D02*
X785Y2056D01*
X810Y2056D02*
X829Y2056D01*
X866Y2056D02*
X885Y2056D01*
X910Y2056D02*
X929Y2056D01*
X966Y2056D02*
X985Y2056D01*
X1010Y2056D02*
X1029Y2056D01*
X1066Y2056D02*
X1085Y2056D01*
X1110Y2056D02*
X1129Y2056D01*
X1166Y2056D02*
X1185Y2056D01*
X1210Y2056D02*
X1229Y2056D01*
X1266Y2056D02*
X1285Y2056D01*
X1310Y2056D02*
X1329Y2056D01*
X1366Y2056D02*
X1385Y2056D01*
X1410Y2056D02*
X1429Y2056D01*
X1466Y2056D02*
X1485Y2056D01*
X1510Y2056D02*
X1529Y2056D01*
X1566Y2056D02*
X1585Y2056D01*
X1610Y2056D02*
X1629Y2056D01*
X1665Y2056D02*
X1685Y2056D01*
X1710Y2056D02*
X1729Y2056D01*
X1765Y2056D02*
X1785Y2056D01*
X1809Y2056D02*
X1829Y2056D01*
X1865Y2056D02*
X1885Y2056D01*
X410Y2055D02*
X430Y2055D01*
X465Y2055D02*
X485Y2055D01*
X510Y2055D02*
X530Y2055D01*
X565Y2055D02*
X585Y2055D01*
X610Y2055D02*
X629Y2055D01*
X665Y2055D02*
X685Y2055D01*
X710Y2055D02*
X729Y2055D01*
X765Y2055D02*
X785Y2055D01*
X810Y2055D02*
X830Y2055D01*
X865Y2055D02*
X885Y2055D01*
X910Y2055D02*
X930Y2055D01*
X965Y2055D02*
X985Y2055D01*
X1010Y2055D02*
X1030Y2055D01*
X1065Y2055D02*
X1085Y2055D01*
X1110Y2055D02*
X1130Y2055D01*
X1165Y2055D02*
X1185Y2055D01*
X1210Y2055D02*
X1230Y2055D01*
X1265Y2055D02*
X1285Y2055D01*
X1310Y2055D02*
X1330Y2055D01*
X1365Y2055D02*
X1385Y2055D01*
X1410Y2055D02*
X1429Y2055D01*
X1465Y2055D02*
X1485Y2055D01*
X1510Y2055D02*
X1529Y2055D01*
X1565Y2055D02*
X1585Y2055D01*
X1610Y2055D02*
X1629Y2055D01*
X1665Y2055D02*
X1685Y2055D01*
X1710Y2055D02*
X1729Y2055D01*
X1765Y2055D02*
X1785Y2055D01*
X1810Y2055D02*
X1829Y2055D01*
X1865Y2055D02*
X1885Y2055D01*
X410Y2054D02*
X430Y2054D01*
X465Y2054D02*
X485Y2054D01*
X510Y2054D02*
X530Y2054D01*
X565Y2054D02*
X585Y2054D01*
X610Y2054D02*
X630Y2054D01*
X665Y2054D02*
X684Y2054D01*
X710Y2054D02*
X730Y2054D01*
X764Y2054D02*
X784Y2054D01*
X810Y2054D02*
X830Y2054D01*
X865Y2054D02*
X885Y2054D01*
X910Y2054D02*
X930Y2054D01*
X965Y2054D02*
X985Y2054D01*
X1010Y2054D02*
X1030Y2054D01*
X1065Y2054D02*
X1085Y2054D01*
X1110Y2054D02*
X1130Y2054D01*
X1165Y2054D02*
X1185Y2054D01*
X1210Y2054D02*
X1230Y2054D01*
X1265Y2054D02*
X1285Y2054D01*
X1310Y2054D02*
X1330Y2054D01*
X1365Y2054D02*
X1385Y2054D01*
X1410Y2054D02*
X1430Y2054D01*
X1465Y2054D02*
X1484Y2054D01*
X1510Y2054D02*
X1530Y2054D01*
X1565Y2054D02*
X1584Y2054D01*
X1610Y2054D02*
X1630Y2054D01*
X1664Y2054D02*
X1684Y2054D01*
X1710Y2054D02*
X1730Y2054D01*
X1764Y2054D02*
X1784Y2054D01*
X1810Y2054D02*
X1830Y2054D01*
X1864Y2054D02*
X1884Y2054D01*
X411Y2053D02*
X431Y2053D01*
X464Y2053D02*
X485Y2053D01*
X511Y2053D02*
X531Y2053D01*
X564Y2053D02*
X584Y2053D01*
X610Y2053D02*
X631Y2053D01*
X664Y2053D02*
X684Y2053D01*
X710Y2053D02*
X730Y2053D01*
X764Y2053D02*
X784Y2053D01*
X811Y2053D02*
X831Y2053D01*
X864Y2053D02*
X884Y2053D01*
X911Y2053D02*
X931Y2053D01*
X964Y2053D02*
X984Y2053D01*
X1011Y2053D02*
X1031Y2053D01*
X1064Y2053D02*
X1084Y2053D01*
X1110Y2053D02*
X1131Y2053D01*
X1164Y2053D02*
X1184Y2053D01*
X1210Y2053D02*
X1231Y2053D01*
X1264Y2053D02*
X1284Y2053D01*
X1310Y2053D02*
X1331Y2053D01*
X1364Y2053D02*
X1384Y2053D01*
X1410Y2053D02*
X1431Y2053D01*
X1464Y2053D02*
X1484Y2053D01*
X1510Y2053D02*
X1531Y2053D01*
X1564Y2053D02*
X1584Y2053D01*
X1610Y2053D02*
X1631Y2053D01*
X1664Y2053D02*
X1684Y2053D01*
X1710Y2053D02*
X1730Y2053D01*
X1764Y2053D02*
X1784Y2053D01*
X1810Y2053D02*
X1830Y2053D01*
X1864Y2053D02*
X1884Y2053D01*
X411Y2052D02*
X432Y2052D01*
X464Y2052D02*
X484Y2052D01*
X511Y2052D02*
X532Y2052D01*
X563Y2052D02*
X584Y2052D01*
X611Y2052D02*
X631Y2052D01*
X663Y2052D02*
X684Y2052D01*
X710Y2052D02*
X731Y2052D01*
X763Y2052D02*
X784Y2052D01*
X811Y2052D02*
X832Y2052D01*
X863Y2052D02*
X884Y2052D01*
X911Y2052D02*
X932Y2052D01*
X963Y2052D02*
X984Y2052D01*
X1011Y2052D02*
X1031Y2052D01*
X1063Y2052D02*
X1084Y2052D01*
X1111Y2052D02*
X1131Y2052D01*
X1163Y2052D02*
X1184Y2052D01*
X1211Y2052D02*
X1231Y2052D01*
X1263Y2052D02*
X1284Y2052D01*
X1311Y2052D02*
X1331Y2052D01*
X1363Y2052D02*
X1384Y2052D01*
X1411Y2052D02*
X1431Y2052D01*
X1463Y2052D02*
X1484Y2052D01*
X1511Y2052D02*
X1531Y2052D01*
X1563Y2052D02*
X1584Y2052D01*
X1611Y2052D02*
X1631Y2052D01*
X1663Y2052D02*
X1684Y2052D01*
X1711Y2052D02*
X1731Y2052D01*
X1763Y2052D02*
X1784Y2052D01*
X1810Y2052D02*
X1831Y2052D01*
X1863Y2052D02*
X1884Y2052D01*
X411Y2051D02*
X433Y2051D01*
X463Y2051D02*
X484Y2051D01*
X511Y2051D02*
X532Y2051D01*
X563Y2051D02*
X584Y2051D01*
X611Y2051D02*
X632Y2051D01*
X662Y2051D02*
X684Y2051D01*
X711Y2051D02*
X732Y2051D01*
X762Y2051D02*
X783Y2051D01*
X811Y2051D02*
X832Y2051D01*
X863Y2051D02*
X884Y2051D01*
X911Y2051D02*
X932Y2051D01*
X963Y2051D02*
X984Y2051D01*
X1011Y2051D02*
X1032Y2051D01*
X1063Y2051D02*
X1084Y2051D01*
X1111Y2051D02*
X1132Y2051D01*
X1162Y2051D02*
X1184Y2051D01*
X1211Y2051D02*
X1232Y2051D01*
X1262Y2051D02*
X1284Y2051D01*
X1311Y2051D02*
X1332Y2051D01*
X1362Y2051D02*
X1384Y2051D01*
X1411Y2051D02*
X1432Y2051D01*
X1462Y2051D02*
X1484Y2051D01*
X1511Y2051D02*
X1532Y2051D01*
X1562Y2051D02*
X1584Y2051D01*
X1611Y2051D02*
X1632Y2051D01*
X1662Y2051D02*
X1684Y2051D01*
X1711Y2051D02*
X1732Y2051D01*
X1762Y2051D02*
X1783Y2051D01*
X1811Y2051D02*
X1832Y2051D01*
X1862Y2051D02*
X1883Y2051D01*
X412Y2050D02*
X433Y2050D01*
X462Y2050D02*
X484Y2050D01*
X512Y2050D02*
X533Y2050D01*
X562Y2050D02*
X583Y2050D01*
X611Y2050D02*
X633Y2050D01*
X661Y2050D02*
X683Y2050D01*
X711Y2050D02*
X733Y2050D01*
X761Y2050D02*
X783Y2050D01*
X812Y2050D02*
X833Y2050D01*
X862Y2050D02*
X883Y2050D01*
X912Y2050D02*
X933Y2050D01*
X962Y2050D02*
X983Y2050D01*
X1011Y2050D02*
X1033Y2050D01*
X1062Y2050D02*
X1083Y2050D01*
X1111Y2050D02*
X1133Y2050D01*
X1162Y2050D02*
X1183Y2050D01*
X1211Y2050D02*
X1233Y2050D01*
X1262Y2050D02*
X1283Y2050D01*
X1311Y2050D02*
X1333Y2050D01*
X1362Y2050D02*
X1383Y2050D01*
X1411Y2050D02*
X1433Y2050D01*
X1462Y2050D02*
X1483Y2050D01*
X1511Y2050D02*
X1533Y2050D01*
X1561Y2050D02*
X1583Y2050D01*
X1611Y2050D02*
X1633Y2050D01*
X1661Y2050D02*
X1683Y2050D01*
X1711Y2050D02*
X1733Y2050D01*
X1761Y2050D02*
X1783Y2050D01*
X1811Y2050D02*
X1833Y2050D01*
X1861Y2050D02*
X1883Y2050D01*
X412Y2049D02*
X434Y2049D01*
X461Y2049D02*
X483Y2049D01*
X512Y2049D02*
X534Y2049D01*
X561Y2049D02*
X583Y2049D01*
X612Y2049D02*
X634Y2049D01*
X660Y2049D02*
X683Y2049D01*
X712Y2049D02*
X734Y2049D01*
X760Y2049D02*
X783Y2049D01*
X812Y2049D02*
X834Y2049D01*
X861Y2049D02*
X883Y2049D01*
X912Y2049D02*
X934Y2049D01*
X961Y2049D02*
X983Y2049D01*
X1012Y2049D02*
X1034Y2049D01*
X1061Y2049D02*
X1083Y2049D01*
X1112Y2049D02*
X1134Y2049D01*
X1161Y2049D02*
X1183Y2049D01*
X1212Y2049D02*
X1234Y2049D01*
X1261Y2049D02*
X1283Y2049D01*
X1312Y2049D02*
X1334Y2049D01*
X1360Y2049D02*
X1383Y2049D01*
X1412Y2049D02*
X1434Y2049D01*
X1460Y2049D02*
X1483Y2049D01*
X1512Y2049D02*
X1534Y2049D01*
X1560Y2049D02*
X1583Y2049D01*
X1612Y2049D02*
X1634Y2049D01*
X1660Y2049D02*
X1683Y2049D01*
X1712Y2049D02*
X1734Y2049D01*
X1760Y2049D02*
X1783Y2049D01*
X1812Y2049D02*
X1834Y2049D01*
X1860Y2049D02*
X1883Y2049D01*
X412Y2048D02*
X436Y2048D01*
X460Y2048D02*
X483Y2048D01*
X512Y2048D02*
X535Y2048D01*
X559Y2048D02*
X583Y2048D01*
X612Y2048D02*
X635Y2048D01*
X659Y2048D02*
X682Y2048D01*
X712Y2048D02*
X735Y2048D01*
X759Y2048D02*
X782Y2048D01*
X812Y2048D02*
X836Y2048D01*
X860Y2048D02*
X883Y2048D01*
X912Y2048D02*
X935Y2048D01*
X959Y2048D02*
X983Y2048D01*
X1012Y2048D02*
X1035Y2048D01*
X1059Y2048D02*
X1083Y2048D01*
X1112Y2048D02*
X1135Y2048D01*
X1159Y2048D02*
X1183Y2048D01*
X1212Y2048D02*
X1235Y2048D01*
X1259Y2048D02*
X1283Y2048D01*
X1312Y2048D02*
X1335Y2048D01*
X1359Y2048D02*
X1383Y2048D01*
X1412Y2048D02*
X1435Y2048D01*
X1459Y2048D02*
X1482Y2048D01*
X1512Y2048D02*
X1535Y2048D01*
X1559Y2048D02*
X1582Y2048D01*
X1612Y2048D02*
X1635Y2048D01*
X1659Y2048D02*
X1682Y2048D01*
X1712Y2048D02*
X1735Y2048D01*
X1759Y2048D02*
X1782Y2048D01*
X1812Y2048D02*
X1835Y2048D01*
X1859Y2048D02*
X1882Y2048D01*
X413Y2047D02*
X437Y2047D01*
X458Y2047D02*
X482Y2047D01*
X513Y2047D02*
X537Y2047D01*
X558Y2047D02*
X582Y2047D01*
X613Y2047D02*
X637Y2047D01*
X658Y2047D02*
X682Y2047D01*
X712Y2047D02*
X736Y2047D01*
X758Y2047D02*
X782Y2047D01*
X813Y2047D02*
X837Y2047D01*
X858Y2047D02*
X882Y2047D01*
X913Y2047D02*
X937Y2047D01*
X958Y2047D02*
X982Y2047D01*
X1013Y2047D02*
X1037Y2047D01*
X1058Y2047D02*
X1082Y2047D01*
X1113Y2047D02*
X1137Y2047D01*
X1158Y2047D02*
X1182Y2047D01*
X1213Y2047D02*
X1237Y2047D01*
X1258Y2047D02*
X1282Y2047D01*
X1313Y2047D02*
X1337Y2047D01*
X1358Y2047D02*
X1382Y2047D01*
X1413Y2047D02*
X1437Y2047D01*
X1458Y2047D02*
X1482Y2047D01*
X1513Y2047D02*
X1536Y2047D01*
X1558Y2047D02*
X1582Y2047D01*
X1612Y2047D02*
X1636Y2047D01*
X1658Y2047D02*
X1682Y2047D01*
X1712Y2047D02*
X1736Y2047D01*
X1758Y2047D02*
X1782Y2047D01*
X1812Y2047D02*
X1836Y2047D01*
X1858Y2047D02*
X1882Y2047D01*
X413Y2046D02*
X439Y2046D01*
X457Y2046D02*
X482Y2046D01*
X513Y2046D02*
X538Y2046D01*
X556Y2046D02*
X582Y2046D01*
X613Y2046D02*
X638Y2046D01*
X656Y2046D02*
X682Y2046D01*
X713Y2046D02*
X738Y2046D01*
X756Y2046D02*
X781Y2046D01*
X813Y2046D02*
X839Y2046D01*
X857Y2046D02*
X882Y2046D01*
X913Y2046D02*
X938Y2046D01*
X956Y2046D02*
X982Y2046D01*
X1013Y2046D02*
X1038Y2046D01*
X1056Y2046D02*
X1082Y2046D01*
X1113Y2046D02*
X1138Y2046D01*
X1156Y2046D02*
X1182Y2046D01*
X1213Y2046D02*
X1238Y2046D01*
X1256Y2046D02*
X1282Y2046D01*
X1313Y2046D02*
X1338Y2046D01*
X1356Y2046D02*
X1382Y2046D01*
X1413Y2046D02*
X1438Y2046D01*
X1456Y2046D02*
X1482Y2046D01*
X1513Y2046D02*
X1538Y2046D01*
X1556Y2046D02*
X1582Y2046D01*
X1613Y2046D02*
X1638Y2046D01*
X1656Y2046D02*
X1681Y2046D01*
X1713Y2046D02*
X1738Y2046D01*
X1756Y2046D02*
X1781Y2046D01*
X1813Y2046D02*
X1838Y2046D01*
X1856Y2046D02*
X1881Y2046D01*
X414Y2045D02*
X441Y2045D01*
X454Y2045D02*
X481Y2045D01*
X514Y2045D02*
X541Y2045D01*
X554Y2045D02*
X581Y2045D01*
X614Y2045D02*
X641Y2045D01*
X654Y2045D02*
X681Y2045D01*
X713Y2045D02*
X741Y2045D01*
X754Y2045D02*
X781Y2045D01*
X814Y2045D02*
X841Y2045D01*
X854Y2045D02*
X881Y2045D01*
X914Y2045D02*
X941Y2045D01*
X954Y2045D02*
X981Y2045D01*
X1014Y2045D02*
X1041Y2045D01*
X1054Y2045D02*
X1081Y2045D01*
X1114Y2045D02*
X1141Y2045D01*
X1154Y2045D02*
X1181Y2045D01*
X1214Y2045D02*
X1241Y2045D01*
X1254Y2045D02*
X1281Y2045D01*
X1314Y2045D02*
X1341Y2045D01*
X1354Y2045D02*
X1381Y2045D01*
X1414Y2045D02*
X1441Y2045D01*
X1454Y2045D02*
X1481Y2045D01*
X1513Y2045D02*
X1541Y2045D01*
X1554Y2045D02*
X1581Y2045D01*
X1613Y2045D02*
X1641Y2045D01*
X1654Y2045D02*
X1681Y2045D01*
X1713Y2045D02*
X1741Y2045D01*
X1754Y2045D02*
X1781Y2045D01*
X1813Y2045D02*
X1841Y2045D01*
X1854Y2045D02*
X1881Y2045D01*
X414Y2044D02*
X481Y2044D01*
X514Y2044D02*
X581Y2044D01*
X614Y2044D02*
X681Y2044D01*
X714Y2044D02*
X780Y2044D01*
X814Y2044D02*
X881Y2044D01*
X914Y2044D02*
X981Y2044D01*
X1014Y2044D02*
X1081Y2044D01*
X1114Y2044D02*
X1181Y2044D01*
X1214Y2044D02*
X1281Y2044D01*
X1314Y2044D02*
X1381Y2044D01*
X1414Y2044D02*
X1481Y2044D01*
X1514Y2044D02*
X1580Y2044D01*
X1614Y2044D02*
X1680Y2044D01*
X1714Y2044D02*
X1780Y2044D01*
X1814Y2044D02*
X1880Y2044D01*
X415Y2043D02*
X480Y2043D01*
X515Y2043D02*
X580Y2043D01*
X615Y2043D02*
X680Y2043D01*
X714Y2043D02*
X780Y2043D01*
X815Y2043D02*
X880Y2043D01*
X915Y2043D02*
X980Y2043D01*
X1015Y2043D02*
X1080Y2043D01*
X1115Y2043D02*
X1180Y2043D01*
X1215Y2043D02*
X1280Y2043D01*
X1315Y2043D02*
X1380Y2043D01*
X1415Y2043D02*
X1480Y2043D01*
X1515Y2043D02*
X1580Y2043D01*
X1615Y2043D02*
X1680Y2043D01*
X1715Y2043D02*
X1780Y2043D01*
X1814Y2043D02*
X1880Y2043D01*
X416Y2042D02*
X480Y2042D01*
X515Y2042D02*
X580Y2042D01*
X615Y2042D02*
X679Y2042D01*
X715Y2042D02*
X779Y2042D01*
X815Y2042D02*
X880Y2042D01*
X915Y2042D02*
X980Y2042D01*
X1015Y2042D02*
X1080Y2042D01*
X1115Y2042D02*
X1179Y2042D01*
X1215Y2042D02*
X1279Y2042D01*
X1315Y2042D02*
X1379Y2042D01*
X1415Y2042D02*
X1479Y2042D01*
X1515Y2042D02*
X1579Y2042D01*
X1615Y2042D02*
X1679Y2042D01*
X1715Y2042D02*
X1779Y2042D01*
X1815Y2042D02*
X1879Y2042D01*
X416Y2041D02*
X479Y2041D01*
X516Y2041D02*
X579Y2041D01*
X616Y2041D02*
X679Y2041D01*
X716Y2041D02*
X779Y2041D01*
X816Y2041D02*
X879Y2041D01*
X916Y2041D02*
X979Y2041D01*
X1016Y2041D02*
X1079Y2041D01*
X1116Y2041D02*
X1179Y2041D01*
X1216Y2041D02*
X1279Y2041D01*
X1316Y2041D02*
X1379Y2041D01*
X1416Y2041D02*
X1479Y2041D01*
X1516Y2041D02*
X1579Y2041D01*
X1616Y2041D02*
X1679Y2041D01*
X1716Y2041D02*
X1779Y2041D01*
X1816Y2041D02*
X1879Y2041D01*
X417Y2040D02*
X478Y2040D01*
X517Y2040D02*
X578Y2040D01*
X617Y2040D02*
X678Y2040D01*
X716Y2040D02*
X778Y2040D01*
X817Y2040D02*
X878Y2040D01*
X917Y2040D02*
X978Y2040D01*
X1017Y2040D02*
X1078Y2040D01*
X1117Y2040D02*
X1178Y2040D01*
X1217Y2040D02*
X1278Y2040D01*
X1317Y2040D02*
X1378Y2040D01*
X1417Y2040D02*
X1478Y2040D01*
X1517Y2040D02*
X1578Y2040D01*
X1616Y2040D02*
X1678Y2040D01*
X1716Y2040D02*
X1778Y2040D01*
X1816Y2040D02*
X1878Y2040D01*
X418Y2039D02*
X478Y2039D01*
X517Y2039D02*
X577Y2039D01*
X617Y2039D02*
X677Y2039D01*
X717Y2039D02*
X777Y2039D01*
X818Y2039D02*
X877Y2039D01*
X917Y2039D02*
X977Y2039D01*
X1017Y2039D02*
X1077Y2039D01*
X1117Y2039D02*
X1177Y2039D01*
X1217Y2039D02*
X1277Y2039D01*
X1317Y2039D02*
X1377Y2039D01*
X1417Y2039D02*
X1477Y2039D01*
X1517Y2039D02*
X1577Y2039D01*
X1617Y2039D02*
X1677Y2039D01*
X1717Y2039D02*
X1777Y2039D01*
X1817Y2039D02*
X1877Y2039D01*
X418Y2038D02*
X477Y2038D01*
X518Y2038D02*
X577Y2038D01*
X618Y2038D02*
X676Y2038D01*
X718Y2038D02*
X776Y2038D01*
X818Y2038D02*
X877Y2038D01*
X918Y2038D02*
X977Y2038D01*
X1018Y2038D02*
X1077Y2038D01*
X1118Y2038D02*
X1177Y2038D01*
X1218Y2038D02*
X1277Y2038D01*
X1318Y2038D02*
X1377Y2038D01*
X1418Y2038D02*
X1477Y2038D01*
X1518Y2038D02*
X1576Y2038D01*
X1618Y2038D02*
X1676Y2038D01*
X1718Y2038D02*
X1776Y2038D01*
X1818Y2038D02*
X1876Y2038D01*
X419Y2037D02*
X476Y2037D01*
X519Y2037D02*
X576Y2037D01*
X619Y2037D02*
X676Y2037D01*
X719Y2037D02*
X775Y2037D01*
X819Y2037D02*
X876Y2037D01*
X919Y2037D02*
X976Y2037D01*
X1019Y2037D02*
X1076Y2037D01*
X1119Y2037D02*
X1176Y2037D01*
X1219Y2037D02*
X1276Y2037D01*
X1319Y2037D02*
X1376Y2037D01*
X1419Y2037D02*
X1476Y2037D01*
X1519Y2037D02*
X1576Y2037D01*
X1619Y2037D02*
X1676Y2037D01*
X1719Y2037D02*
X1776Y2037D01*
X1819Y2037D02*
X1875Y2037D01*
X420Y2036D02*
X475Y2036D01*
X520Y2036D02*
X575Y2036D01*
X620Y2036D02*
X675Y2036D01*
X720Y2036D02*
X775Y2036D01*
X820Y2036D02*
X875Y2036D01*
X920Y2036D02*
X975Y2036D01*
X1020Y2036D02*
X1075Y2036D01*
X1120Y2036D02*
X1175Y2036D01*
X1220Y2036D02*
X1275Y2036D01*
X1320Y2036D02*
X1375Y2036D01*
X1420Y2036D02*
X1475Y2036D01*
X1520Y2036D02*
X1575Y2036D01*
X1620Y2036D02*
X1675Y2036D01*
X1720Y2036D02*
X1775Y2036D01*
X1820Y2036D02*
X1875Y2036D01*
X421Y2035D02*
X474Y2035D01*
X521Y2035D02*
X574Y2035D01*
X621Y2035D02*
X674Y2035D01*
X721Y2035D02*
X774Y2035D01*
X821Y2035D02*
X874Y2035D01*
X921Y2035D02*
X974Y2035D01*
X1021Y2035D02*
X1074Y2035D01*
X1121Y2035D02*
X1174Y2035D01*
X1221Y2035D02*
X1274Y2035D01*
X1321Y2035D02*
X1374Y2035D01*
X1421Y2035D02*
X1474Y2035D01*
X1521Y2035D02*
X1574Y2035D01*
X1621Y2035D02*
X1674Y2035D01*
X1721Y2035D02*
X1774Y2035D01*
X1821Y2035D02*
X1874Y2035D01*
X422Y2034D02*
X473Y2034D01*
X522Y2034D02*
X573Y2034D01*
X622Y2034D02*
X673Y2034D01*
X722Y2034D02*
X772Y2034D01*
X822Y2034D02*
X873Y2034D01*
X922Y2034D02*
X973Y2034D01*
X1022Y2034D02*
X1073Y2034D01*
X1122Y2034D02*
X1173Y2034D01*
X1222Y2034D02*
X1273Y2034D01*
X1322Y2034D02*
X1373Y2034D01*
X1422Y2034D02*
X1473Y2034D01*
X1522Y2034D02*
X1573Y2034D01*
X1622Y2034D02*
X1673Y2034D01*
X1722Y2034D02*
X1772Y2034D01*
X1822Y2034D02*
X1872Y2034D01*
X424Y2033D02*
X472Y2033D01*
X523Y2033D02*
X572Y2033D01*
X623Y2033D02*
X671Y2033D01*
X723Y2033D02*
X771Y2033D01*
X823Y2033D02*
X872Y2033D01*
X923Y2033D02*
X972Y2033D01*
X1023Y2033D02*
X1072Y2033D01*
X1123Y2033D02*
X1172Y2033D01*
X1223Y2033D02*
X1272Y2033D01*
X1323Y2033D02*
X1371Y2033D01*
X1423Y2033D02*
X1471Y2033D01*
X1523Y2033D02*
X1571Y2033D01*
X1623Y2033D02*
X1671Y2033D01*
X1723Y2033D02*
X1771Y2033D01*
X1823Y2033D02*
X1871Y2033D01*
X425Y2032D02*
X470Y2032D01*
X525Y2032D02*
X570Y2032D01*
X624Y2032D02*
X670Y2032D01*
X724Y2032D02*
X770Y2032D01*
X825Y2032D02*
X870Y2032D01*
X925Y2032D02*
X970Y2032D01*
X1025Y2032D02*
X1070Y2032D01*
X1125Y2032D02*
X1170Y2032D01*
X1225Y2032D02*
X1270Y2032D01*
X1325Y2032D02*
X1370Y2032D01*
X1425Y2032D02*
X1470Y2032D01*
X1524Y2032D02*
X1570Y2032D01*
X1624Y2032D02*
X1670Y2032D01*
X1724Y2032D02*
X1770Y2032D01*
X1824Y2032D02*
X1870Y2032D01*
X426Y2031D02*
X469Y2031D01*
X526Y2031D02*
X569Y2031D01*
X626Y2031D02*
X669Y2031D01*
X726Y2031D02*
X768Y2031D01*
X826Y2031D02*
X869Y2031D01*
X926Y2031D02*
X969Y2031D01*
X1026Y2031D02*
X1069Y2031D01*
X1126Y2031D02*
X1169Y2031D01*
X1226Y2031D02*
X1269Y2031D01*
X1326Y2031D02*
X1369Y2031D01*
X1426Y2031D02*
X1469Y2031D01*
X1526Y2031D02*
X1569Y2031D01*
X1626Y2031D02*
X1669Y2031D01*
X1726Y2031D02*
X1769Y2031D01*
X1826Y2031D02*
X1869Y2031D01*
X428Y2030D02*
X467Y2030D01*
X528Y2030D02*
X567Y2030D01*
X628Y2030D02*
X667Y2030D01*
X727Y2030D02*
X767Y2030D01*
X828Y2030D02*
X867Y2030D01*
X928Y2030D02*
X967Y2030D01*
X1028Y2030D02*
X1067Y2030D01*
X1128Y2030D02*
X1167Y2030D01*
X1228Y2030D02*
X1267Y2030D01*
X1328Y2030D02*
X1367Y2030D01*
X1428Y2030D02*
X1467Y2030D01*
X1528Y2030D02*
X1567Y2030D01*
X1627Y2030D02*
X1667Y2030D01*
X1727Y2030D02*
X1767Y2030D01*
X1827Y2030D02*
X1867Y2030D01*
X430Y2029D02*
X466Y2029D01*
X529Y2029D02*
X565Y2029D01*
X629Y2029D02*
X665Y2029D01*
X729Y2029D02*
X765Y2029D01*
X830Y2029D02*
X865Y2029D01*
X929Y2029D02*
X965Y2029D01*
X1029Y2029D02*
X1065Y2029D01*
X1129Y2029D02*
X1165Y2029D01*
X1229Y2029D02*
X1265Y2029D01*
X1329Y2029D02*
X1365Y2029D01*
X1429Y2029D02*
X1465Y2029D01*
X1529Y2029D02*
X1565Y2029D01*
X1629Y2029D02*
X1665Y2029D01*
X1729Y2029D02*
X1765Y2029D01*
X1829Y2029D02*
X1865Y2029D01*
X432Y2028D02*
X464Y2028D01*
X532Y2028D02*
X563Y2028D01*
X631Y2028D02*
X663Y2028D01*
X731Y2028D02*
X763Y2028D01*
X832Y2028D02*
X863Y2028D01*
X932Y2028D02*
X963Y2028D01*
X1032Y2028D02*
X1063Y2028D01*
X1131Y2028D02*
X1163Y2028D01*
X1231Y2028D02*
X1263Y2028D01*
X1331Y2028D02*
X1363Y2028D01*
X1431Y2028D02*
X1463Y2028D01*
X1531Y2028D02*
X1563Y2028D01*
X1631Y2028D02*
X1663Y2028D01*
X1731Y2028D02*
X1763Y2028D01*
X1831Y2028D02*
X1863Y2028D01*
X434Y2027D02*
X461Y2027D01*
X534Y2027D02*
X561Y2027D01*
X634Y2027D02*
X661Y2027D01*
X733Y2027D02*
X761Y2027D01*
X834Y2027D02*
X861Y2027D01*
X934Y2027D02*
X961Y2027D01*
X1034Y2027D02*
X1061Y2027D01*
X1134Y2027D02*
X1161Y2027D01*
X1234Y2027D02*
X1261Y2027D01*
X1334Y2027D02*
X1361Y2027D01*
X1434Y2027D02*
X1461Y2027D01*
X1534Y2027D02*
X1561Y2027D01*
X1634Y2027D02*
X1661Y2027D01*
X1734Y2027D02*
X1761Y2027D01*
X1834Y2027D02*
X1861Y2027D01*
X437Y2026D02*
X458Y2026D01*
X537Y2026D02*
X558Y2026D01*
X636Y2026D02*
X658Y2026D01*
X736Y2026D02*
X758Y2026D01*
X837Y2026D02*
X858Y2026D01*
X937Y2026D02*
X958Y2026D01*
X1037Y2026D02*
X1058Y2026D01*
X1137Y2026D02*
X1158Y2026D01*
X1237Y2026D02*
X1258Y2026D01*
X1336Y2026D02*
X1358Y2026D01*
X1436Y2026D02*
X1458Y2026D01*
X1536Y2026D02*
X1558Y2026D01*
X1636Y2026D02*
X1658Y2026D01*
X1736Y2026D02*
X1758Y2026D01*
X1836Y2026D02*
X1858Y2026D01*
X441Y2025D02*
X455Y2025D01*
X540Y2025D02*
X555Y2025D01*
X640Y2025D02*
X654Y2025D01*
X740Y2025D02*
X754Y2025D01*
X840Y2025D02*
X855Y2025D01*
X940Y2025D02*
X955Y2025D01*
X1040Y2025D02*
X1055Y2025D01*
X1140Y2025D02*
X1155Y2025D01*
X1240Y2025D02*
X1254Y2025D01*
X1340Y2025D02*
X1354Y2025D01*
X1440Y2025D02*
X1454Y2025D01*
X1540Y2025D02*
X1554Y2025D01*
X1640Y2025D02*
X1654Y2025D01*
X1740Y2025D02*
X1754Y2025D01*
X1840Y2025D02*
X1854Y2025D01*
X443Y1002D02*
X452Y1002D01*
X543Y1002D02*
X552Y1002D01*
X642Y1002D02*
X652Y1002D01*
X742Y1002D02*
X752Y1002D01*
X843Y1002D02*
X852Y1002D01*
X943Y1002D02*
X952Y1002D01*
X1043Y1002D02*
X1052Y1002D01*
X1143Y1002D02*
X1152Y1002D01*
X1243Y1002D02*
X1252Y1002D01*
X1342Y1002D02*
X1352Y1002D01*
X1442Y1002D02*
X1452Y1002D01*
X1542Y1002D02*
X1552Y1002D01*
X1642Y1002D02*
X1652Y1002D01*
X1742Y1002D02*
X1752Y1002D01*
X1842Y1002D02*
X1852Y1002D01*
X438Y1001D02*
X457Y1001D01*
X538Y1001D02*
X557Y1001D01*
X638Y1001D02*
X657Y1001D01*
X738Y1001D02*
X757Y1001D01*
X838Y1001D02*
X857Y1001D01*
X938Y1001D02*
X957Y1001D01*
X1038Y1001D02*
X1057Y1001D01*
X1138Y1001D02*
X1157Y1001D01*
X1238Y1001D02*
X1257Y1001D01*
X1338Y1001D02*
X1357Y1001D01*
X1438Y1001D02*
X1457Y1001D01*
X1538Y1001D02*
X1557Y1001D01*
X1638Y1001D02*
X1657Y1001D01*
X1738Y1001D02*
X1757Y1001D01*
X1838Y1001D02*
X1857Y1001D01*
X435Y1000D02*
X460Y1000D01*
X535Y1000D02*
X560Y1000D01*
X635Y1000D02*
X660Y1000D01*
X735Y1000D02*
X760Y1000D01*
X835Y1000D02*
X860Y1000D01*
X935Y1000D02*
X960Y1000D01*
X1035Y1000D02*
X1060Y1000D01*
X1135Y1000D02*
X1160Y1000D01*
X1235Y1000D02*
X1260Y1000D01*
X1335Y1000D02*
X1360Y1000D01*
X1435Y1000D02*
X1460Y1000D01*
X1535Y1000D02*
X1560Y1000D01*
X1635Y1000D02*
X1660Y1000D01*
X1735Y1000D02*
X1760Y1000D01*
X1835Y1000D02*
X1860Y1000D01*
X433Y999D02*
X463Y999D01*
X532Y999D02*
X563Y999D01*
X632Y999D02*
X662Y999D01*
X732Y999D02*
X762Y999D01*
X832Y999D02*
X863Y999D01*
X932Y999D02*
X963Y999D01*
X1032Y999D02*
X1063Y999D01*
X1132Y999D02*
X1162Y999D01*
X1232Y999D02*
X1262Y999D01*
X1332Y999D02*
X1362Y999D01*
X1432Y999D02*
X1462Y999D01*
X1532Y999D02*
X1562Y999D01*
X1632Y999D02*
X1662Y999D01*
X1732Y999D02*
X1762Y999D01*
X1832Y999D02*
X1862Y999D01*
X430Y998D02*
X465Y998D01*
X530Y998D02*
X565Y998D01*
X630Y998D02*
X664Y998D01*
X730Y998D02*
X764Y998D01*
X830Y998D02*
X865Y998D01*
X930Y998D02*
X965Y998D01*
X1030Y998D02*
X1065Y998D01*
X1130Y998D02*
X1165Y998D01*
X1230Y998D02*
X1265Y998D01*
X1330Y998D02*
X1365Y998D01*
X1430Y998D02*
X1464Y998D01*
X1530Y998D02*
X1564Y998D01*
X1630Y998D02*
X1664Y998D01*
X1730Y998D02*
X1764Y998D01*
X1830Y998D02*
X1864Y998D01*
X429Y997D02*
X467Y997D01*
X528Y997D02*
X567Y997D01*
X628Y997D02*
X666Y997D01*
X728Y997D02*
X766Y997D01*
X828Y997D02*
X867Y997D01*
X928Y997D02*
X967Y997D01*
X1028Y997D02*
X1066Y997D01*
X1128Y997D02*
X1166Y997D01*
X1228Y997D02*
X1266Y997D01*
X1328Y997D02*
X1366Y997D01*
X1428Y997D02*
X1466Y997D01*
X1528Y997D02*
X1566Y997D01*
X1628Y997D02*
X1666Y997D01*
X1728Y997D02*
X1766Y997D01*
X1828Y997D02*
X1866Y997D01*
X427Y996D02*
X468Y996D01*
X527Y996D02*
X568Y996D01*
X627Y996D02*
X668Y996D01*
X726Y996D02*
X768Y996D01*
X827Y996D02*
X868Y996D01*
X927Y996D02*
X968Y996D01*
X1027Y996D02*
X1068Y996D01*
X1127Y996D02*
X1168Y996D01*
X1227Y996D02*
X1268Y996D01*
X1327Y996D02*
X1368Y996D01*
X1427Y996D02*
X1468Y996D01*
X1526Y996D02*
X1568Y996D01*
X1626Y996D02*
X1668Y996D01*
X1726Y996D02*
X1768Y996D01*
X1826Y996D02*
X1868Y996D01*
X425Y995D02*
X470Y995D01*
X525Y995D02*
X570Y995D01*
X625Y995D02*
X670Y995D01*
X725Y995D02*
X769Y995D01*
X825Y995D02*
X870Y995D01*
X925Y995D02*
X970Y995D01*
X1025Y995D02*
X1070Y995D01*
X1125Y995D02*
X1170Y995D01*
X1225Y995D02*
X1270Y995D01*
X1325Y995D02*
X1370Y995D01*
X1425Y995D02*
X1470Y995D01*
X1525Y995D02*
X1569Y995D01*
X1625Y995D02*
X1669Y995D01*
X1725Y995D02*
X1769Y995D01*
X1825Y995D02*
X1869Y995D01*
X424Y994D02*
X471Y994D01*
X524Y994D02*
X571Y994D01*
X624Y994D02*
X671Y994D01*
X723Y994D02*
X771Y994D01*
X824Y994D02*
X871Y994D01*
X924Y994D02*
X971Y994D01*
X1024Y994D02*
X1071Y994D01*
X1124Y994D02*
X1171Y994D01*
X1224Y994D02*
X1271Y994D01*
X1324Y994D02*
X1371Y994D01*
X1424Y994D02*
X1471Y994D01*
X1524Y994D02*
X1571Y994D01*
X1624Y994D02*
X1671Y994D01*
X1724Y994D02*
X1771Y994D01*
X1824Y994D02*
X1871Y994D01*
X423Y993D02*
X473Y993D01*
X523Y993D02*
X572Y993D01*
X622Y993D02*
X672Y993D01*
X722Y993D02*
X772Y993D01*
X823Y993D02*
X872Y993D01*
X923Y993D02*
X972Y993D01*
X1023Y993D02*
X1072Y993D01*
X1123Y993D02*
X1172Y993D01*
X1222Y993D02*
X1272Y993D01*
X1322Y993D02*
X1372Y993D01*
X1422Y993D02*
X1472Y993D01*
X1522Y993D02*
X1572Y993D01*
X1622Y993D02*
X1672Y993D01*
X1722Y993D02*
X1772Y993D01*
X1822Y993D02*
X1872Y993D01*
X422Y992D02*
X474Y992D01*
X521Y992D02*
X573Y992D01*
X621Y992D02*
X673Y992D01*
X721Y992D02*
X773Y992D01*
X822Y992D02*
X874Y992D01*
X921Y992D02*
X973Y992D01*
X1021Y992D02*
X1073Y992D01*
X1121Y992D02*
X1173Y992D01*
X1221Y992D02*
X1273Y992D01*
X1321Y992D02*
X1373Y992D01*
X1421Y992D02*
X1473Y992D01*
X1521Y992D02*
X1573Y992D01*
X1621Y992D02*
X1673Y992D01*
X1721Y992D02*
X1773Y992D01*
X1821Y992D02*
X1873Y992D01*
X421Y991D02*
X475Y991D01*
X520Y991D02*
X575Y991D01*
X620Y991D02*
X674Y991D01*
X720Y991D02*
X774Y991D01*
X820Y991D02*
X875Y991D01*
X920Y991D02*
X975Y991D01*
X1020Y991D02*
X1075Y991D01*
X1120Y991D02*
X1174Y991D01*
X1220Y991D02*
X1274Y991D01*
X1320Y991D02*
X1374Y991D01*
X1420Y991D02*
X1474Y991D01*
X1520Y991D02*
X1574Y991D01*
X1620Y991D02*
X1674Y991D01*
X1720Y991D02*
X1774Y991D01*
X1820Y991D02*
X1874Y991D01*
X420Y990D02*
X476Y990D01*
X519Y990D02*
X575Y990D01*
X619Y990D02*
X675Y990D01*
X719Y990D02*
X775Y990D01*
X820Y990D02*
X875Y990D01*
X919Y990D02*
X975Y990D01*
X1019Y990D02*
X1075Y990D01*
X1119Y990D02*
X1175Y990D01*
X1219Y990D02*
X1275Y990D01*
X1319Y990D02*
X1375Y990D01*
X1419Y990D02*
X1475Y990D01*
X1519Y990D02*
X1575Y990D01*
X1619Y990D02*
X1675Y990D01*
X1719Y990D02*
X1775Y990D01*
X1819Y990D02*
X1875Y990D01*
X419Y989D02*
X477Y989D01*
X519Y989D02*
X576Y989D01*
X618Y989D02*
X676Y989D01*
X718Y989D02*
X776Y989D01*
X819Y989D02*
X876Y989D01*
X919Y989D02*
X976Y989D01*
X1019Y989D02*
X1076Y989D01*
X1119Y989D02*
X1176Y989D01*
X1218Y989D02*
X1276Y989D01*
X1318Y989D02*
X1376Y989D01*
X1418Y989D02*
X1476Y989D01*
X1518Y989D02*
X1576Y989D01*
X1618Y989D02*
X1676Y989D01*
X1718Y989D02*
X1776Y989D01*
X1818Y989D02*
X1876Y989D01*
X418Y988D02*
X477Y988D01*
X518Y988D02*
X577Y988D01*
X618Y988D02*
X677Y988D01*
X717Y988D02*
X777Y988D01*
X818Y988D02*
X877Y988D01*
X918Y988D02*
X977Y988D01*
X1018Y988D02*
X1077Y988D01*
X1118Y988D02*
X1177Y988D01*
X1218Y988D02*
X1277Y988D01*
X1318Y988D02*
X1377Y988D01*
X1418Y988D02*
X1477Y988D01*
X1518Y988D02*
X1577Y988D01*
X1618Y988D02*
X1677Y988D01*
X1717Y988D02*
X1777Y988D01*
X1817Y988D02*
X1877Y988D01*
X417Y987D02*
X478Y987D01*
X517Y987D02*
X578Y987D01*
X617Y987D02*
X678Y987D01*
X717Y987D02*
X778Y987D01*
X817Y987D02*
X878Y987D01*
X917Y987D02*
X978Y987D01*
X1017Y987D02*
X1078Y987D01*
X1117Y987D02*
X1178Y987D01*
X1217Y987D02*
X1278Y987D01*
X1317Y987D02*
X1378Y987D01*
X1417Y987D02*
X1478Y987D01*
X1517Y987D02*
X1578Y987D01*
X1617Y987D02*
X1678Y987D01*
X1717Y987D02*
X1778Y987D01*
X1817Y987D02*
X1878Y987D01*
X416Y986D02*
X479Y986D01*
X516Y986D02*
X579Y986D01*
X616Y986D02*
X678Y986D01*
X716Y986D02*
X778Y986D01*
X816Y986D02*
X879Y986D01*
X916Y986D02*
X979Y986D01*
X1016Y986D02*
X1079Y986D01*
X1116Y986D02*
X1179Y986D01*
X1216Y986D02*
X1279Y986D01*
X1316Y986D02*
X1378Y986D01*
X1416Y986D02*
X1478Y986D01*
X1516Y986D02*
X1578Y986D01*
X1616Y986D02*
X1678Y986D01*
X1716Y986D02*
X1778Y986D01*
X1816Y986D02*
X1878Y986D01*
X416Y985D02*
X479Y985D01*
X516Y985D02*
X579Y985D01*
X615Y985D02*
X679Y985D01*
X715Y985D02*
X779Y985D01*
X816Y985D02*
X879Y985D01*
X916Y985D02*
X979Y985D01*
X1016Y985D02*
X1079Y985D01*
X1116Y985D02*
X1179Y985D01*
X1216Y985D02*
X1279Y985D01*
X1315Y985D02*
X1379Y985D01*
X1415Y985D02*
X1479Y985D01*
X1515Y985D02*
X1579Y985D01*
X1615Y985D02*
X1679Y985D01*
X1715Y985D02*
X1779Y985D01*
X1815Y985D02*
X1879Y985D01*
X415Y984D02*
X480Y984D01*
X515Y984D02*
X580Y984D01*
X615Y984D02*
X680Y984D01*
X715Y984D02*
X780Y984D01*
X815Y984D02*
X880Y984D01*
X915Y984D02*
X980Y984D01*
X1015Y984D02*
X1080Y984D01*
X1115Y984D02*
X1180Y984D01*
X1215Y984D02*
X1280Y984D01*
X1315Y984D02*
X1380Y984D01*
X1415Y984D02*
X1480Y984D01*
X1515Y984D02*
X1580Y984D01*
X1615Y984D02*
X1680Y984D01*
X1715Y984D02*
X1780Y984D01*
X1815Y984D02*
X1880Y984D01*
X415Y983D02*
X481Y983D01*
X514Y983D02*
X580Y983D01*
X614Y983D02*
X680Y983D01*
X714Y983D02*
X780Y983D01*
X814Y983D02*
X881Y983D01*
X914Y983D02*
X980Y983D01*
X1014Y983D02*
X1080Y983D01*
X1114Y983D02*
X1180Y983D01*
X1214Y983D02*
X1280Y983D01*
X1314Y983D02*
X1380Y983D01*
X1414Y983D02*
X1480Y983D01*
X1514Y983D02*
X1580Y983D01*
X1614Y983D02*
X1680Y983D01*
X1714Y983D02*
X1780Y983D01*
X1814Y983D02*
X1880Y983D01*
X414Y982D02*
X442Y982D01*
X453Y982D02*
X481Y982D01*
X514Y982D02*
X542Y982D01*
X553Y982D02*
X581Y982D01*
X614Y982D02*
X642Y982D01*
X652Y982D02*
X681Y982D01*
X714Y982D02*
X742Y982D01*
X752Y982D02*
X781Y982D01*
X814Y982D02*
X842Y982D01*
X853Y982D02*
X881Y982D01*
X914Y982D02*
X942Y982D01*
X953Y982D02*
X981Y982D01*
X1014Y982D02*
X1042Y982D01*
X1053Y982D02*
X1081Y982D01*
X1114Y982D02*
X1142Y982D01*
X1153Y982D02*
X1181Y982D01*
X1214Y982D02*
X1242Y982D01*
X1253Y982D02*
X1281Y982D01*
X1314Y982D02*
X1342Y982D01*
X1353Y982D02*
X1381Y982D01*
X1414Y982D02*
X1442Y982D01*
X1453Y982D02*
X1481Y982D01*
X1514Y982D02*
X1542Y982D01*
X1552Y982D02*
X1581Y982D01*
X1614Y982D02*
X1642Y982D01*
X1652Y982D02*
X1681Y982D01*
X1714Y982D02*
X1742Y982D01*
X1752Y982D02*
X1781Y982D01*
X1814Y982D02*
X1842Y982D01*
X1852Y982D02*
X1881Y982D01*
X414Y981D02*
X439Y981D01*
X456Y981D02*
X482Y981D01*
X513Y981D02*
X539Y981D01*
X556Y981D02*
X582Y981D01*
X613Y981D02*
X639Y981D01*
X656Y981D02*
X681Y981D01*
X713Y981D02*
X739Y981D01*
X755Y981D02*
X781Y981D01*
X813Y981D02*
X839Y981D01*
X856Y981D02*
X882Y981D01*
X913Y981D02*
X939Y981D01*
X956Y981D02*
X982Y981D01*
X1013Y981D02*
X1039Y981D01*
X1056Y981D02*
X1082Y981D01*
X1113Y981D02*
X1139Y981D01*
X1156Y981D02*
X1181Y981D01*
X1213Y981D02*
X1239Y981D01*
X1256Y981D02*
X1281Y981D01*
X1313Y981D02*
X1339Y981D01*
X1356Y981D02*
X1381Y981D01*
X1413Y981D02*
X1439Y981D01*
X1456Y981D02*
X1481Y981D01*
X1513Y981D02*
X1539Y981D01*
X1556Y981D02*
X1581Y981D01*
X1613Y981D02*
X1639Y981D01*
X1656Y981D02*
X1681Y981D01*
X1713Y981D02*
X1739Y981D01*
X1755Y981D02*
X1781Y981D01*
X1813Y981D02*
X1839Y981D01*
X1855Y981D02*
X1881Y981D01*
X413Y980D02*
X438Y980D01*
X458Y980D02*
X482Y980D01*
X513Y980D02*
X537Y980D01*
X558Y980D02*
X582Y980D01*
X613Y980D02*
X637Y980D01*
X657Y980D02*
X682Y980D01*
X713Y980D02*
X737Y980D01*
X757Y980D02*
X782Y980D01*
X813Y980D02*
X837Y980D01*
X858Y980D02*
X882Y980D01*
X913Y980D02*
X937Y980D01*
X958Y980D02*
X982Y980D01*
X1013Y980D02*
X1037Y980D01*
X1058Y980D02*
X1082Y980D01*
X1113Y980D02*
X1137Y980D01*
X1157Y980D02*
X1182Y980D01*
X1213Y980D02*
X1237Y980D01*
X1257Y980D02*
X1282Y980D01*
X1313Y980D02*
X1337Y980D01*
X1357Y980D02*
X1382Y980D01*
X1413Y980D02*
X1437Y980D01*
X1457Y980D02*
X1482Y980D01*
X1513Y980D02*
X1537Y980D01*
X1557Y980D02*
X1582Y980D01*
X1613Y980D02*
X1637Y980D01*
X1657Y980D02*
X1682Y980D01*
X1713Y980D02*
X1737Y980D01*
X1757Y980D02*
X1782Y980D01*
X1813Y980D02*
X1837Y980D01*
X1857Y980D02*
X1882Y980D01*
X413Y979D02*
X436Y979D01*
X459Y979D02*
X483Y979D01*
X512Y979D02*
X536Y979D01*
X559Y979D02*
X582Y979D01*
X612Y979D02*
X636Y979D01*
X659Y979D02*
X682Y979D01*
X712Y979D02*
X736Y979D01*
X759Y979D02*
X782Y979D01*
X812Y979D02*
X836Y979D01*
X859Y979D02*
X883Y979D01*
X912Y979D02*
X936Y979D01*
X959Y979D02*
X982Y979D01*
X1012Y979D02*
X1036Y979D01*
X1059Y979D02*
X1082Y979D01*
X1112Y979D02*
X1136Y979D01*
X1159Y979D02*
X1182Y979D01*
X1212Y979D02*
X1236Y979D01*
X1259Y979D02*
X1282Y979D01*
X1312Y979D02*
X1336Y979D01*
X1359Y979D02*
X1382Y979D01*
X1412Y979D02*
X1436Y979D01*
X1459Y979D02*
X1482Y979D01*
X1512Y979D02*
X1536Y979D01*
X1559Y979D02*
X1582Y979D01*
X1612Y979D02*
X1636Y979D01*
X1659Y979D02*
X1682Y979D01*
X1712Y979D02*
X1736Y979D01*
X1759Y979D02*
X1782Y979D01*
X1812Y979D02*
X1836Y979D01*
X1859Y979D02*
X1882Y979D01*
X412Y978D02*
X435Y978D01*
X460Y978D02*
X483Y978D01*
X512Y978D02*
X535Y978D01*
X560Y978D02*
X583Y978D01*
X612Y978D02*
X635Y978D01*
X660Y978D02*
X683Y978D01*
X712Y978D02*
X734Y978D01*
X760Y978D02*
X783Y978D01*
X812Y978D02*
X835Y978D01*
X860Y978D02*
X883Y978D01*
X912Y978D02*
X935Y978D01*
X960Y978D02*
X983Y978D01*
X1012Y978D02*
X1035Y978D01*
X1060Y978D02*
X1083Y978D01*
X1112Y978D02*
X1135Y978D01*
X1160Y978D02*
X1183Y978D01*
X1212Y978D02*
X1235Y978D01*
X1260Y978D02*
X1283Y978D01*
X1312Y978D02*
X1335Y978D01*
X1360Y978D02*
X1383Y978D01*
X1412Y978D02*
X1435Y978D01*
X1460Y978D02*
X1483Y978D01*
X1512Y978D02*
X1535Y978D01*
X1560Y978D02*
X1583Y978D01*
X1612Y978D02*
X1634Y978D01*
X1660Y978D02*
X1683Y978D01*
X1712Y978D02*
X1734Y978D01*
X1760Y978D02*
X1783Y978D01*
X1812Y978D02*
X1834Y978D01*
X1860Y978D02*
X1883Y978D01*
X412Y977D02*
X434Y977D01*
X462Y977D02*
X483Y977D01*
X512Y977D02*
X534Y977D01*
X561Y977D02*
X583Y977D01*
X611Y977D02*
X633Y977D01*
X661Y977D02*
X683Y977D01*
X711Y977D02*
X733Y977D01*
X761Y977D02*
X783Y977D01*
X812Y977D02*
X834Y977D01*
X861Y977D02*
X883Y977D01*
X912Y977D02*
X934Y977D01*
X961Y977D02*
X983Y977D01*
X1012Y977D02*
X1034Y977D01*
X1061Y977D02*
X1083Y977D01*
X1112Y977D02*
X1134Y977D01*
X1161Y977D02*
X1183Y977D01*
X1212Y977D02*
X1234Y977D01*
X1261Y977D02*
X1283Y977D01*
X1312Y977D02*
X1333Y977D01*
X1361Y977D02*
X1383Y977D01*
X1411Y977D02*
X1433Y977D01*
X1461Y977D02*
X1483Y977D01*
X1511Y977D02*
X1533Y977D01*
X1561Y977D02*
X1583Y977D01*
X1611Y977D02*
X1633Y977D01*
X1661Y977D02*
X1683Y977D01*
X1711Y977D02*
X1733Y977D01*
X1761Y977D02*
X1783Y977D01*
X1811Y977D02*
X1833Y977D01*
X1861Y977D02*
X1883Y977D01*
X411Y976D02*
X433Y976D01*
X462Y976D02*
X484Y976D01*
X511Y976D02*
X533Y976D01*
X562Y976D02*
X584Y976D01*
X611Y976D02*
X633Y976D01*
X662Y976D02*
X683Y976D01*
X711Y976D02*
X732Y976D01*
X762Y976D02*
X783Y976D01*
X811Y976D02*
X833Y976D01*
X862Y976D02*
X884Y976D01*
X911Y976D02*
X933Y976D01*
X962Y976D02*
X984Y976D01*
X1011Y976D02*
X1033Y976D01*
X1062Y976D02*
X1084Y976D01*
X1111Y976D02*
X1133Y976D01*
X1162Y976D02*
X1184Y976D01*
X1211Y976D02*
X1233Y976D01*
X1262Y976D02*
X1284Y976D01*
X1311Y976D02*
X1333Y976D01*
X1362Y976D02*
X1383Y976D01*
X1411Y976D02*
X1433Y976D01*
X1462Y976D02*
X1483Y976D01*
X1511Y976D02*
X1532Y976D01*
X1562Y976D02*
X1583Y976D01*
X1611Y976D02*
X1632Y976D01*
X1662Y976D02*
X1683Y976D01*
X1711Y976D02*
X1732Y976D01*
X1762Y976D02*
X1783Y976D01*
X1811Y976D02*
X1832Y976D01*
X1862Y976D02*
X1883Y976D01*
X411Y975D02*
X432Y975D01*
X463Y975D02*
X484Y975D01*
X511Y975D02*
X532Y975D01*
X563Y975D02*
X584Y975D01*
X611Y975D02*
X632Y975D01*
X663Y975D02*
X684Y975D01*
X711Y975D02*
X731Y975D01*
X763Y975D02*
X784Y975D01*
X811Y975D02*
X832Y975D01*
X863Y975D02*
X884Y975D01*
X911Y975D02*
X932Y975D01*
X963Y975D02*
X984Y975D01*
X1011Y975D02*
X1032Y975D01*
X1063Y975D02*
X1084Y975D01*
X1111Y975D02*
X1132Y975D01*
X1163Y975D02*
X1184Y975D01*
X1211Y975D02*
X1232Y975D01*
X1263Y975D02*
X1284Y975D01*
X1311Y975D02*
X1332Y975D01*
X1363Y975D02*
X1384Y975D01*
X1411Y975D02*
X1432Y975D01*
X1463Y975D02*
X1484Y975D01*
X1511Y975D02*
X1532Y975D01*
X1563Y975D02*
X1584Y975D01*
X1611Y975D02*
X1632Y975D01*
X1663Y975D02*
X1684Y975D01*
X1711Y975D02*
X1732Y975D01*
X1763Y975D02*
X1784Y975D01*
X1811Y975D02*
X1832Y975D01*
X1863Y975D02*
X1884Y975D01*
X411Y974D02*
X431Y974D01*
X464Y974D02*
X484Y974D01*
X511Y974D02*
X531Y974D01*
X564Y974D02*
X584Y974D01*
X610Y974D02*
X631Y974D01*
X664Y974D02*
X684Y974D01*
X710Y974D02*
X731Y974D01*
X764Y974D02*
X784Y974D01*
X811Y974D02*
X831Y974D01*
X864Y974D02*
X884Y974D01*
X911Y974D02*
X931Y974D01*
X964Y974D02*
X984Y974D01*
X1011Y974D02*
X1031Y974D01*
X1064Y974D02*
X1084Y974D01*
X1111Y974D02*
X1131Y974D01*
X1164Y974D02*
X1184Y974D01*
X1211Y974D02*
X1231Y974D01*
X1264Y974D02*
X1284Y974D01*
X1311Y974D02*
X1331Y974D01*
X1364Y974D02*
X1384Y974D01*
X1410Y974D02*
X1431Y974D01*
X1464Y974D02*
X1484Y974D01*
X1510Y974D02*
X1531Y974D01*
X1564Y974D02*
X1584Y974D01*
X1610Y974D02*
X1631Y974D01*
X1664Y974D02*
X1684Y974D01*
X1710Y974D02*
X1731Y974D01*
X1764Y974D02*
X1784Y974D01*
X1810Y974D02*
X1831Y974D01*
X1864Y974D02*
X1884Y974D01*
X411Y973D02*
X431Y973D01*
X465Y973D02*
X485Y973D01*
X510Y973D02*
X530Y973D01*
X564Y973D02*
X585Y973D01*
X610Y973D02*
X630Y973D01*
X664Y973D02*
X684Y973D01*
X710Y973D02*
X730Y973D01*
X764Y973D02*
X784Y973D01*
X810Y973D02*
X830Y973D01*
X865Y973D02*
X885Y973D01*
X910Y973D02*
X930Y973D01*
X965Y973D02*
X985Y973D01*
X1010Y973D02*
X1030Y973D01*
X1064Y973D02*
X1085Y973D01*
X1110Y973D02*
X1130Y973D01*
X1164Y973D02*
X1184Y973D01*
X1210Y973D02*
X1230Y973D01*
X1264Y973D02*
X1284Y973D01*
X1310Y973D02*
X1330Y973D01*
X1364Y973D02*
X1384Y973D01*
X1410Y973D02*
X1430Y973D01*
X1464Y973D02*
X1484Y973D01*
X1510Y973D02*
X1530Y973D01*
X1564Y973D02*
X1584Y973D01*
X1610Y973D02*
X1630Y973D01*
X1664Y973D02*
X1684Y973D01*
X1710Y973D02*
X1730Y973D01*
X1764Y973D02*
X1784Y973D01*
X1810Y973D02*
X1830Y973D01*
X1864Y973D02*
X1884Y973D01*
X410Y972D02*
X430Y972D01*
X465Y972D02*
X485Y972D01*
X510Y972D02*
X530Y972D01*
X565Y972D02*
X585Y972D01*
X610Y972D02*
X630Y972D01*
X665Y972D02*
X685Y972D01*
X710Y972D02*
X729Y972D01*
X765Y972D02*
X784Y972D01*
X810Y972D02*
X830Y972D01*
X865Y972D02*
X885Y972D01*
X910Y972D02*
X930Y972D01*
X965Y972D02*
X985Y972D01*
X1010Y972D02*
X1030Y972D01*
X1065Y972D02*
X1085Y972D01*
X1110Y972D02*
X1130Y972D01*
X1165Y972D02*
X1185Y972D01*
X1210Y972D02*
X1230Y972D01*
X1265Y972D02*
X1285Y972D01*
X1310Y972D02*
X1330Y972D01*
X1365Y972D02*
X1385Y972D01*
X1410Y972D02*
X1430Y972D01*
X1465Y972D02*
X1485Y972D01*
X1510Y972D02*
X1530Y972D01*
X1565Y972D02*
X1585Y972D01*
X1610Y972D02*
X1630Y972D01*
X1665Y972D02*
X1685Y972D01*
X1710Y972D02*
X1730Y972D01*
X1765Y972D02*
X1785Y972D01*
X1810Y972D02*
X1830Y972D01*
X1865Y972D02*
X1884Y972D01*
X410Y971D02*
X430Y971D01*
X466Y971D02*
X485Y971D01*
X510Y971D02*
X529Y971D01*
X566Y971D02*
X585Y971D01*
X610Y971D02*
X629Y971D01*
X665Y971D02*
X685Y971D01*
X709Y971D02*
X729Y971D01*
X765Y971D02*
X785Y971D01*
X810Y971D02*
X829Y971D01*
X866Y971D02*
X885Y971D01*
X910Y971D02*
X929Y971D01*
X966Y971D02*
X985Y971D01*
X1010Y971D02*
X1029Y971D01*
X1066Y971D02*
X1085Y971D01*
X1110Y971D02*
X1129Y971D01*
X1166Y971D02*
X1185Y971D01*
X1210Y971D02*
X1229Y971D01*
X1265Y971D02*
X1285Y971D01*
X1310Y971D02*
X1329Y971D01*
X1365Y971D02*
X1385Y971D01*
X1410Y971D02*
X1429Y971D01*
X1465Y971D02*
X1485Y971D01*
X1510Y971D02*
X1529Y971D01*
X1565Y971D02*
X1585Y971D01*
X1610Y971D02*
X1629Y971D01*
X1665Y971D02*
X1685Y971D01*
X1710Y971D02*
X1729Y971D01*
X1765Y971D02*
X1785Y971D01*
X1810Y971D02*
X1829Y971D01*
X1865Y971D02*
X1885Y971D01*
X410Y970D02*
X429Y970D01*
X466Y970D02*
X485Y970D01*
X510Y970D02*
X529Y970D01*
X566Y970D02*
X585Y970D01*
X610Y970D02*
X629Y970D01*
X666Y970D02*
X685Y970D01*
X709Y970D02*
X729Y970D01*
X766Y970D02*
X785Y970D01*
X810Y970D02*
X829Y970D01*
X866Y970D02*
X885Y970D01*
X910Y970D02*
X929Y970D01*
X966Y970D02*
X985Y970D01*
X1010Y970D02*
X1029Y970D01*
X1066Y970D02*
X1085Y970D01*
X1110Y970D02*
X1129Y970D01*
X1166Y970D02*
X1185Y970D01*
X1210Y970D02*
X1229Y970D01*
X1266Y970D02*
X1285Y970D01*
X1310Y970D02*
X1329Y970D01*
X1366Y970D02*
X1385Y970D01*
X1410Y970D02*
X1429Y970D01*
X1466Y970D02*
X1485Y970D01*
X1509Y970D02*
X1529Y970D01*
X1566Y970D02*
X1585Y970D01*
X1609Y970D02*
X1629Y970D01*
X1666Y970D02*
X1685Y970D01*
X1709Y970D02*
X1729Y970D01*
X1766Y970D02*
X1785Y970D01*
X1809Y970D02*
X1829Y970D01*
X1866Y970D02*
X1885Y970D01*
X410Y969D02*
X429Y969D01*
X466Y969D02*
X486Y969D01*
X510Y969D02*
X529Y969D01*
X566Y969D02*
X585Y969D01*
X609Y969D02*
X629Y969D01*
X666Y969D02*
X685Y969D01*
X709Y969D02*
X728Y969D01*
X766Y969D02*
X785Y969D01*
X810Y969D02*
X829Y969D01*
X866Y969D02*
X885Y969D01*
X910Y969D02*
X929Y969D01*
X966Y969D02*
X985Y969D01*
X1009Y969D02*
X1029Y969D01*
X1066Y969D02*
X1085Y969D01*
X1109Y969D02*
X1129Y969D01*
X1166Y969D02*
X1185Y969D01*
X1209Y969D02*
X1229Y969D01*
X1266Y969D02*
X1285Y969D01*
X1309Y969D02*
X1329Y969D01*
X1366Y969D02*
X1385Y969D01*
X1409Y969D02*
X1429Y969D01*
X1466Y969D02*
X1485Y969D01*
X1509Y969D02*
X1529Y969D01*
X1566Y969D02*
X1585Y969D01*
X1609Y969D02*
X1628Y969D01*
X1666Y969D02*
X1685Y969D01*
X1709Y969D02*
X1728Y969D01*
X1766Y969D02*
X1785Y969D01*
X1809Y969D02*
X1828Y969D01*
X1866Y969D02*
X1885Y969D01*
X410Y968D02*
X429Y968D01*
X467Y968D02*
X486Y968D01*
X509Y968D02*
X528Y968D01*
X566Y968D02*
X586Y968D01*
X609Y968D02*
X628Y968D01*
X666Y968D02*
X685Y968D01*
X709Y968D02*
X728Y968D01*
X766Y968D02*
X785Y968D01*
X809Y968D02*
X828Y968D01*
X867Y968D02*
X886Y968D01*
X909Y968D02*
X928Y968D01*
X967Y968D02*
X986Y968D01*
X1009Y968D02*
X1028Y968D01*
X1066Y968D02*
X1086Y968D01*
X1109Y968D02*
X1128Y968D01*
X1166Y968D02*
X1185Y968D01*
X1209Y968D02*
X1228Y968D01*
X1266Y968D02*
X1285Y968D01*
X1309Y968D02*
X1328Y968D01*
X1366Y968D02*
X1385Y968D01*
X1409Y968D02*
X1428Y968D01*
X1466Y968D02*
X1485Y968D01*
X1509Y968D02*
X1528Y968D01*
X1566Y968D02*
X1585Y968D01*
X1609Y968D02*
X1628Y968D01*
X1666Y968D02*
X1685Y968D01*
X1709Y968D02*
X1728Y968D01*
X1766Y968D02*
X1785Y968D01*
X1809Y968D02*
X1828Y968D01*
X1866Y968D02*
X1885Y968D01*
X409Y967D02*
X428Y967D01*
X467Y967D02*
X486Y967D01*
X509Y967D02*
X528Y967D01*
X567Y967D02*
X586Y967D01*
X609Y967D02*
X628Y967D01*
X666Y967D02*
X685Y967D01*
X709Y967D02*
X728Y967D01*
X766Y967D02*
X785Y967D01*
X809Y967D02*
X828Y967D01*
X867Y967D02*
X886Y967D01*
X909Y967D02*
X928Y967D01*
X967Y967D02*
X986Y967D01*
X1009Y967D02*
X1028Y967D01*
X1067Y967D02*
X1086Y967D01*
X1109Y967D02*
X1128Y967D01*
X1167Y967D02*
X1186Y967D01*
X1209Y967D02*
X1228Y967D01*
X1267Y967D02*
X1286Y967D01*
X1309Y967D02*
X1328Y967D01*
X1367Y967D02*
X1386Y967D01*
X1409Y967D02*
X1428Y967D01*
X1466Y967D02*
X1486Y967D01*
X1509Y967D02*
X1528Y967D01*
X1566Y967D02*
X1585Y967D01*
X1609Y967D02*
X1628Y967D01*
X1666Y967D02*
X1685Y967D01*
X1709Y967D02*
X1728Y967D01*
X1766Y967D02*
X1785Y967D01*
X1809Y967D02*
X1828Y967D01*
X1866Y967D02*
X1885Y967D01*
X409Y966D02*
X428Y966D01*
X467Y966D02*
X486Y966D01*
X509Y966D02*
X528Y966D01*
X567Y966D02*
X586Y966D01*
X609Y966D02*
X628Y966D01*
X667Y966D02*
X686Y966D01*
X709Y966D02*
X728Y966D01*
X766Y966D02*
X785Y966D01*
X809Y966D02*
X828Y966D01*
X867Y966D02*
X886Y966D01*
X909Y966D02*
X928Y966D01*
X967Y966D02*
X986Y966D01*
X1009Y966D02*
X1028Y966D01*
X1067Y966D02*
X1086Y966D01*
X1109Y966D02*
X1128Y966D01*
X1167Y966D02*
X1186Y966D01*
X1209Y966D02*
X1228Y966D01*
X1267Y966D02*
X1286Y966D01*
X1309Y966D02*
X1328Y966D01*
X1367Y966D02*
X1386Y966D01*
X1409Y966D02*
X1428Y966D01*
X1467Y966D02*
X1486Y966D01*
X1509Y966D02*
X1528Y966D01*
X1567Y966D02*
X1586Y966D01*
X1609Y966D02*
X1628Y966D01*
X1666Y966D02*
X1685Y966D01*
X1709Y966D02*
X1728Y966D01*
X1766Y966D02*
X1785Y966D01*
X1809Y966D02*
X1828Y966D01*
X1866Y966D02*
X1885Y966D01*
X409Y965D02*
X428Y965D01*
X467Y965D02*
X486Y965D01*
X509Y965D02*
X528Y965D01*
X567Y965D02*
X586Y965D01*
X609Y965D02*
X628Y965D01*
X667Y965D02*
X686Y965D01*
X709Y965D02*
X728Y965D01*
X766Y965D02*
X785Y965D01*
X809Y965D02*
X828Y965D01*
X867Y965D02*
X886Y965D01*
X909Y965D02*
X928Y965D01*
X967Y965D02*
X986Y965D01*
X1009Y965D02*
X1028Y965D01*
X1067Y965D02*
X1086Y965D01*
X1109Y965D02*
X1128Y965D01*
X1167Y965D02*
X1186Y965D01*
X1209Y965D02*
X1228Y965D01*
X1267Y965D02*
X1286Y965D01*
X1309Y965D02*
X1328Y965D01*
X1367Y965D02*
X1386Y965D01*
X1409Y965D02*
X1428Y965D01*
X1467Y965D02*
X1486Y965D01*
X1509Y965D02*
X1528Y965D01*
X1567Y965D02*
X1586Y965D01*
X1609Y965D02*
X1628Y965D01*
X1667Y965D02*
X1686Y965D01*
X1709Y965D02*
X1728Y965D01*
X1767Y965D02*
X1786Y965D01*
X1809Y965D02*
X1828Y965D01*
X1866Y965D02*
X1885Y965D01*
X409Y964D02*
X428Y964D01*
X467Y964D02*
X486Y964D01*
X509Y964D02*
X528Y964D01*
X567Y964D02*
X586Y964D01*
X609Y964D02*
X628Y964D01*
X667Y964D02*
X686Y964D01*
X709Y964D02*
X728Y964D01*
X767Y964D02*
X785Y964D01*
X809Y964D02*
X828Y964D01*
X867Y964D02*
X886Y964D01*
X909Y964D02*
X928Y964D01*
X967Y964D02*
X986Y964D01*
X1009Y964D02*
X1028Y964D01*
X1067Y964D02*
X1086Y964D01*
X1109Y964D02*
X1128Y964D01*
X1167Y964D02*
X1186Y964D01*
X1209Y964D02*
X1228Y964D01*
X1267Y964D02*
X1286Y964D01*
X1309Y964D02*
X1328Y964D01*
X1367Y964D02*
X1386Y964D01*
X1409Y964D02*
X1428Y964D01*
X1467Y964D02*
X1486Y964D01*
X1509Y964D02*
X1528Y964D01*
X1567Y964D02*
X1586Y964D01*
X1609Y964D02*
X1628Y964D01*
X1667Y964D02*
X1686Y964D01*
X1709Y964D02*
X1728Y964D01*
X1767Y964D02*
X1786Y964D01*
X1809Y964D02*
X1828Y964D01*
X1867Y964D02*
X1886Y964D01*
X409Y963D02*
X428Y963D01*
X467Y963D02*
X486Y963D01*
X509Y963D02*
X528Y963D01*
X567Y963D02*
X586Y963D01*
X609Y963D02*
X628Y963D01*
X667Y963D02*
X686Y963D01*
X709Y963D02*
X728Y963D01*
X767Y963D02*
X785Y963D01*
X809Y963D02*
X828Y963D01*
X867Y963D02*
X886Y963D01*
X909Y963D02*
X928Y963D01*
X967Y963D02*
X986Y963D01*
X1009Y963D02*
X1028Y963D01*
X1067Y963D02*
X1086Y963D01*
X1109Y963D02*
X1128Y963D01*
X1167Y963D02*
X1186Y963D01*
X1209Y963D02*
X1228Y963D01*
X1267Y963D02*
X1286Y963D01*
X1309Y963D02*
X1328Y963D01*
X1367Y963D02*
X1386Y963D01*
X1409Y963D02*
X1428Y963D01*
X1467Y963D02*
X1486Y963D01*
X1509Y963D02*
X1528Y963D01*
X1567Y963D02*
X1586Y963D01*
X1609Y963D02*
X1628Y963D01*
X1667Y963D02*
X1686Y963D01*
X1709Y963D02*
X1728Y963D01*
X1767Y963D02*
X1786Y963D01*
X1809Y963D02*
X1828Y963D01*
X1867Y963D02*
X1886Y963D01*
X409Y962D02*
X428Y962D01*
X467Y962D02*
X486Y962D01*
X509Y962D02*
X528Y962D01*
X567Y962D02*
X586Y962D01*
X609Y962D02*
X628Y962D01*
X667Y962D02*
X686Y962D01*
X709Y962D02*
X728Y962D01*
X766Y962D02*
X785Y962D01*
X809Y962D02*
X828Y962D01*
X867Y962D02*
X886Y962D01*
X909Y962D02*
X928Y962D01*
X967Y962D02*
X986Y962D01*
X1009Y962D02*
X1028Y962D01*
X1067Y962D02*
X1086Y962D01*
X1109Y962D02*
X1128Y962D01*
X1167Y962D02*
X1186Y962D01*
X1209Y962D02*
X1228Y962D01*
X1267Y962D02*
X1286Y962D01*
X1309Y962D02*
X1328Y962D01*
X1367Y962D02*
X1386Y962D01*
X1409Y962D02*
X1428Y962D01*
X1467Y962D02*
X1486Y962D01*
X1509Y962D02*
X1528Y962D01*
X1567Y962D02*
X1586Y962D01*
X1609Y962D02*
X1628Y962D01*
X1667Y962D02*
X1686Y962D01*
X1709Y962D02*
X1728Y962D01*
X1767Y962D02*
X1786Y962D01*
X1809Y962D02*
X1828Y962D01*
X1866Y962D02*
X1885Y962D01*
X409Y961D02*
X428Y961D01*
X467Y961D02*
X486Y961D01*
X509Y961D02*
X528Y961D01*
X567Y961D02*
X586Y961D01*
X609Y961D02*
X628Y961D01*
X667Y961D02*
X686Y961D01*
X709Y961D02*
X728Y961D01*
X766Y961D02*
X785Y961D01*
X809Y961D02*
X828Y961D01*
X867Y961D02*
X886Y961D01*
X909Y961D02*
X928Y961D01*
X967Y961D02*
X986Y961D01*
X1009Y961D02*
X1028Y961D01*
X1067Y961D02*
X1086Y961D01*
X1109Y961D02*
X1128Y961D01*
X1167Y961D02*
X1186Y961D01*
X1209Y961D02*
X1228Y961D01*
X1267Y961D02*
X1286Y961D01*
X1309Y961D02*
X1328Y961D01*
X1367Y961D02*
X1386Y961D01*
X1409Y961D02*
X1428Y961D01*
X1467Y961D02*
X1486Y961D01*
X1509Y961D02*
X1528Y961D01*
X1567Y961D02*
X1586Y961D01*
X1609Y961D02*
X1628Y961D01*
X1666Y961D02*
X1685Y961D01*
X1709Y961D02*
X1728Y961D01*
X1766Y961D02*
X1785Y961D01*
X1809Y961D02*
X1828Y961D01*
X1866Y961D02*
X1885Y961D01*
X409Y960D02*
X428Y960D01*
X467Y960D02*
X486Y960D01*
X509Y960D02*
X528Y960D01*
X567Y960D02*
X586Y960D01*
X609Y960D02*
X628Y960D01*
X666Y960D02*
X685Y960D01*
X709Y960D02*
X728Y960D01*
X766Y960D02*
X785Y960D01*
X809Y960D02*
X828Y960D01*
X867Y960D02*
X886Y960D01*
X909Y960D02*
X928Y960D01*
X967Y960D02*
X986Y960D01*
X1009Y960D02*
X1028Y960D01*
X1067Y960D02*
X1086Y960D01*
X1109Y960D02*
X1128Y960D01*
X1167Y960D02*
X1186Y960D01*
X1209Y960D02*
X1228Y960D01*
X1267Y960D02*
X1286Y960D01*
X1309Y960D02*
X1328Y960D01*
X1367Y960D02*
X1386Y960D01*
X1409Y960D02*
X1428Y960D01*
X1466Y960D02*
X1485Y960D01*
X1509Y960D02*
X1528Y960D01*
X1566Y960D02*
X1585Y960D01*
X1609Y960D02*
X1628Y960D01*
X1666Y960D02*
X1685Y960D01*
X1709Y960D02*
X1728Y960D01*
X1766Y960D02*
X1785Y960D01*
X1809Y960D02*
X1828Y960D01*
X1866Y960D02*
X1885Y960D01*
X410Y959D02*
X429Y959D01*
X467Y959D02*
X486Y959D01*
X509Y959D02*
X528Y959D01*
X566Y959D02*
X586Y959D01*
X609Y959D02*
X628Y959D01*
X666Y959D02*
X685Y959D01*
X709Y959D02*
X728Y959D01*
X766Y959D02*
X785Y959D01*
X809Y959D02*
X829Y959D01*
X867Y959D02*
X886Y959D01*
X909Y959D02*
X928Y959D01*
X966Y959D02*
X986Y959D01*
X1009Y959D02*
X1028Y959D01*
X1066Y959D02*
X1086Y959D01*
X1109Y959D02*
X1128Y959D01*
X1166Y959D02*
X1185Y959D01*
X1209Y959D02*
X1228Y959D01*
X1266Y959D02*
X1285Y959D01*
X1309Y959D02*
X1328Y959D01*
X1366Y959D02*
X1385Y959D01*
X1409Y959D02*
X1428Y959D01*
X1466Y959D02*
X1485Y959D01*
X1509Y959D02*
X1528Y959D01*
X1566Y959D02*
X1585Y959D01*
X1609Y959D02*
X1628Y959D01*
X1666Y959D02*
X1685Y959D01*
X1709Y959D02*
X1728Y959D01*
X1766Y959D02*
X1785Y959D01*
X1809Y959D02*
X1828Y959D01*
X1866Y959D02*
X1885Y959D01*
X410Y958D02*
X429Y958D01*
X466Y958D02*
X486Y958D01*
X510Y958D02*
X529Y958D01*
X566Y958D02*
X585Y958D01*
X609Y958D02*
X629Y958D01*
X666Y958D02*
X685Y958D01*
X709Y958D02*
X728Y958D01*
X766Y958D02*
X785Y958D01*
X810Y958D02*
X829Y958D01*
X866Y958D02*
X885Y958D01*
X910Y958D02*
X929Y958D01*
X966Y958D02*
X985Y958D01*
X1010Y958D02*
X1029Y958D01*
X1066Y958D02*
X1085Y958D01*
X1109Y958D02*
X1129Y958D01*
X1166Y958D02*
X1185Y958D01*
X1209Y958D02*
X1229Y958D01*
X1266Y958D02*
X1285Y958D01*
X1309Y958D02*
X1329Y958D01*
X1366Y958D02*
X1385Y958D01*
X1409Y958D02*
X1429Y958D01*
X1466Y958D02*
X1485Y958D01*
X1509Y958D02*
X1529Y958D01*
X1566Y958D02*
X1585Y958D01*
X1609Y958D02*
X1629Y958D01*
X1666Y958D02*
X1685Y958D01*
X1709Y958D02*
X1728Y958D01*
X1766Y958D02*
X1785Y958D01*
X1809Y958D02*
X1828Y958D01*
X1866Y958D02*
X1885Y958D01*
X410Y957D02*
X429Y957D01*
X466Y957D02*
X485Y957D01*
X510Y957D02*
X529Y957D01*
X566Y957D02*
X585Y957D01*
X610Y957D02*
X629Y957D01*
X666Y957D02*
X685Y957D01*
X709Y957D02*
X729Y957D01*
X766Y957D02*
X785Y957D01*
X810Y957D02*
X829Y957D01*
X866Y957D02*
X885Y957D01*
X910Y957D02*
X929Y957D01*
X966Y957D02*
X985Y957D01*
X1010Y957D02*
X1029Y957D01*
X1066Y957D02*
X1085Y957D01*
X1110Y957D02*
X1129Y957D01*
X1166Y957D02*
X1185Y957D01*
X1210Y957D02*
X1229Y957D01*
X1266Y957D02*
X1285Y957D01*
X1310Y957D02*
X1329Y957D01*
X1366Y957D02*
X1385Y957D01*
X1410Y957D02*
X1429Y957D01*
X1466Y957D02*
X1485Y957D01*
X1510Y957D02*
X1529Y957D01*
X1566Y957D02*
X1585Y957D01*
X1609Y957D02*
X1629Y957D01*
X1666Y957D02*
X1685Y957D01*
X1709Y957D02*
X1729Y957D01*
X1766Y957D02*
X1785Y957D01*
X1809Y957D02*
X1829Y957D01*
X1866Y957D02*
X1885Y957D01*
X410Y956D02*
X430Y956D01*
X466Y956D02*
X485Y956D01*
X510Y956D02*
X529Y956D01*
X566Y956D02*
X585Y956D01*
X610Y956D02*
X629Y956D01*
X665Y956D02*
X685Y956D01*
X710Y956D02*
X729Y956D01*
X765Y956D02*
X785Y956D01*
X810Y956D02*
X829Y956D01*
X866Y956D02*
X885Y956D01*
X910Y956D02*
X929Y956D01*
X966Y956D02*
X985Y956D01*
X1010Y956D02*
X1029Y956D01*
X1065Y956D02*
X1085Y956D01*
X1110Y956D02*
X1129Y956D01*
X1165Y956D02*
X1185Y956D01*
X1210Y956D02*
X1229Y956D01*
X1265Y956D02*
X1285Y956D01*
X1310Y956D02*
X1329Y956D01*
X1365Y956D02*
X1385Y956D01*
X1410Y956D02*
X1429Y956D01*
X1465Y956D02*
X1485Y956D01*
X1510Y956D02*
X1529Y956D01*
X1565Y956D02*
X1585Y956D01*
X1610Y956D02*
X1629Y956D01*
X1665Y956D02*
X1685Y956D01*
X1710Y956D02*
X1729Y956D01*
X1765Y956D02*
X1785Y956D01*
X1810Y956D02*
X1829Y956D01*
X1865Y956D02*
X1885Y956D01*
X410Y955D02*
X430Y955D01*
X465Y955D02*
X485Y955D01*
X510Y955D02*
X530Y955D01*
X565Y955D02*
X585Y955D01*
X610Y955D02*
X630Y955D01*
X665Y955D02*
X685Y955D01*
X710Y955D02*
X730Y955D01*
X765Y955D02*
X784Y955D01*
X810Y955D02*
X830Y955D01*
X865Y955D02*
X885Y955D01*
X910Y955D02*
X930Y955D01*
X965Y955D02*
X985Y955D01*
X1010Y955D02*
X1030Y955D01*
X1065Y955D02*
X1085Y955D01*
X1110Y955D02*
X1130Y955D01*
X1165Y955D02*
X1185Y955D01*
X1210Y955D02*
X1230Y955D01*
X1265Y955D02*
X1285Y955D01*
X1310Y955D02*
X1330Y955D01*
X1365Y955D02*
X1385Y955D01*
X1410Y955D02*
X1430Y955D01*
X1465Y955D02*
X1485Y955D01*
X1510Y955D02*
X1530Y955D01*
X1565Y955D02*
X1585Y955D01*
X1610Y955D02*
X1630Y955D01*
X1665Y955D02*
X1685Y955D01*
X1710Y955D02*
X1730Y955D01*
X1765Y955D02*
X1784Y955D01*
X1810Y955D02*
X1830Y955D01*
X1865Y955D02*
X1884Y955D01*
X411Y954D02*
X431Y954D01*
X465Y954D02*
X485Y954D01*
X510Y954D02*
X531Y954D01*
X564Y954D02*
X584Y954D01*
X610Y954D02*
X630Y954D01*
X664Y954D02*
X684Y954D01*
X710Y954D02*
X730Y954D01*
X764Y954D02*
X784Y954D01*
X810Y954D02*
X831Y954D01*
X864Y954D02*
X885Y954D01*
X910Y954D02*
X931Y954D01*
X964Y954D02*
X985Y954D01*
X1010Y954D02*
X1030Y954D01*
X1064Y954D02*
X1084Y954D01*
X1110Y954D02*
X1130Y954D01*
X1164Y954D02*
X1184Y954D01*
X1210Y954D02*
X1230Y954D01*
X1264Y954D02*
X1284Y954D01*
X1310Y954D02*
X1330Y954D01*
X1364Y954D02*
X1384Y954D01*
X1410Y954D02*
X1430Y954D01*
X1464Y954D02*
X1484Y954D01*
X1510Y954D02*
X1530Y954D01*
X1564Y954D02*
X1584Y954D01*
X1610Y954D02*
X1630Y954D01*
X1664Y954D02*
X1684Y954D01*
X1710Y954D02*
X1730Y954D01*
X1764Y954D02*
X1784Y954D01*
X1810Y954D02*
X1830Y954D01*
X1864Y954D02*
X1884Y954D01*
X411Y953D02*
X431Y953D01*
X464Y953D02*
X484Y953D01*
X511Y953D02*
X531Y953D01*
X564Y953D02*
X584Y953D01*
X611Y953D02*
X631Y953D01*
X664Y953D02*
X684Y953D01*
X710Y953D02*
X731Y953D01*
X763Y953D02*
X784Y953D01*
X811Y953D02*
X831Y953D01*
X864Y953D02*
X884Y953D01*
X911Y953D02*
X931Y953D01*
X964Y953D02*
X984Y953D01*
X1011Y953D02*
X1031Y953D01*
X1064Y953D02*
X1084Y953D01*
X1111Y953D02*
X1131Y953D01*
X1164Y953D02*
X1184Y953D01*
X1211Y953D02*
X1231Y953D01*
X1264Y953D02*
X1284Y953D01*
X1311Y953D02*
X1331Y953D01*
X1364Y953D02*
X1384Y953D01*
X1411Y953D02*
X1431Y953D01*
X1464Y953D02*
X1484Y953D01*
X1510Y953D02*
X1531Y953D01*
X1564Y953D02*
X1584Y953D01*
X1610Y953D02*
X1631Y953D01*
X1664Y953D02*
X1684Y953D01*
X1710Y953D02*
X1731Y953D01*
X1763Y953D02*
X1784Y953D01*
X1810Y953D02*
X1831Y953D01*
X1863Y953D02*
X1884Y953D01*
X411Y952D02*
X432Y952D01*
X463Y952D02*
X484Y952D01*
X511Y952D02*
X532Y952D01*
X563Y952D02*
X584Y952D01*
X611Y952D02*
X632Y952D01*
X663Y952D02*
X684Y952D01*
X711Y952D02*
X732Y952D01*
X763Y952D02*
X784Y952D01*
X811Y952D02*
X832Y952D01*
X863Y952D02*
X884Y952D01*
X911Y952D02*
X932Y952D01*
X963Y952D02*
X984Y952D01*
X1011Y952D02*
X1032Y952D01*
X1063Y952D02*
X1084Y952D01*
X1111Y952D02*
X1132Y952D01*
X1163Y952D02*
X1184Y952D01*
X1211Y952D02*
X1232Y952D01*
X1263Y952D02*
X1284Y952D01*
X1311Y952D02*
X1332Y952D01*
X1363Y952D02*
X1384Y952D01*
X1411Y952D02*
X1432Y952D01*
X1463Y952D02*
X1484Y952D01*
X1511Y952D02*
X1532Y952D01*
X1563Y952D02*
X1584Y952D01*
X1611Y952D02*
X1632Y952D01*
X1663Y952D02*
X1684Y952D01*
X1711Y952D02*
X1732Y952D01*
X1763Y952D02*
X1784Y952D01*
X1811Y952D02*
X1832Y952D01*
X1863Y952D02*
X1884Y952D01*
X412Y951D02*
X433Y951D01*
X462Y951D02*
X484Y951D01*
X511Y951D02*
X533Y951D01*
X562Y951D02*
X584Y951D01*
X611Y951D02*
X633Y951D01*
X662Y951D02*
X683Y951D01*
X711Y951D02*
X732Y951D01*
X762Y951D02*
X783Y951D01*
X811Y951D02*
X833Y951D01*
X862Y951D02*
X884Y951D01*
X911Y951D02*
X933Y951D01*
X962Y951D02*
X984Y951D01*
X1011Y951D02*
X1033Y951D01*
X1062Y951D02*
X1084Y951D01*
X1111Y951D02*
X1133Y951D01*
X1162Y951D02*
X1184Y951D01*
X1211Y951D02*
X1233Y951D01*
X1262Y951D02*
X1283Y951D01*
X1311Y951D02*
X1333Y951D01*
X1362Y951D02*
X1383Y951D01*
X1411Y951D02*
X1433Y951D01*
X1462Y951D02*
X1483Y951D01*
X1511Y951D02*
X1533Y951D01*
X1562Y951D02*
X1583Y951D01*
X1611Y951D02*
X1633Y951D01*
X1662Y951D02*
X1683Y951D01*
X1711Y951D02*
X1733Y951D01*
X1762Y951D02*
X1783Y951D01*
X1811Y951D02*
X1833Y951D01*
X1862Y951D02*
X1883Y951D01*
X412Y950D02*
X434Y950D01*
X461Y950D02*
X483Y950D01*
X512Y950D02*
X534Y950D01*
X561Y950D02*
X583Y950D01*
X612Y950D02*
X634Y950D01*
X661Y950D02*
X683Y950D01*
X711Y950D02*
X733Y950D01*
X761Y950D02*
X783Y950D01*
X812Y950D02*
X834Y950D01*
X861Y950D02*
X883Y950D01*
X912Y950D02*
X934Y950D01*
X961Y950D02*
X983Y950D01*
X1012Y950D02*
X1034Y950D01*
X1061Y950D02*
X1083Y950D01*
X1112Y950D02*
X1134Y950D01*
X1161Y950D02*
X1183Y950D01*
X1212Y950D02*
X1234Y950D01*
X1261Y950D02*
X1283Y950D01*
X1312Y950D02*
X1334Y950D01*
X1361Y950D02*
X1383Y950D01*
X1412Y950D02*
X1434Y950D01*
X1461Y950D02*
X1483Y950D01*
X1512Y950D02*
X1534Y950D01*
X1561Y950D02*
X1583Y950D01*
X1611Y950D02*
X1634Y950D01*
X1661Y950D02*
X1683Y950D01*
X1711Y950D02*
X1733Y950D01*
X1761Y950D02*
X1783Y950D01*
X1811Y950D02*
X1833Y950D01*
X1861Y950D02*
X1883Y950D01*
X412Y949D02*
X435Y949D01*
X460Y949D02*
X483Y949D01*
X512Y949D02*
X535Y949D01*
X560Y949D02*
X583Y949D01*
X612Y949D02*
X635Y949D01*
X660Y949D02*
X683Y949D01*
X712Y949D02*
X735Y949D01*
X760Y949D02*
X782Y949D01*
X812Y949D02*
X835Y949D01*
X860Y949D02*
X883Y949D01*
X912Y949D02*
X935Y949D01*
X960Y949D02*
X983Y949D01*
X1012Y949D02*
X1035Y949D01*
X1060Y949D02*
X1083Y949D01*
X1112Y949D02*
X1135Y949D01*
X1160Y949D02*
X1183Y949D01*
X1212Y949D02*
X1235Y949D01*
X1260Y949D02*
X1283Y949D01*
X1312Y949D02*
X1335Y949D01*
X1360Y949D02*
X1383Y949D01*
X1412Y949D02*
X1435Y949D01*
X1460Y949D02*
X1483Y949D01*
X1512Y949D02*
X1535Y949D01*
X1560Y949D02*
X1583Y949D01*
X1612Y949D02*
X1635Y949D01*
X1660Y949D02*
X1683Y949D01*
X1712Y949D02*
X1735Y949D01*
X1760Y949D02*
X1783Y949D01*
X1812Y949D02*
X1835Y949D01*
X1860Y949D02*
X1883Y949D01*
X413Y948D02*
X436Y948D01*
X459Y948D02*
X483Y948D01*
X513Y948D02*
X536Y948D01*
X559Y948D02*
X582Y948D01*
X612Y948D02*
X636Y948D01*
X659Y948D02*
X682Y948D01*
X712Y948D02*
X736Y948D01*
X758Y948D02*
X782Y948D01*
X813Y948D02*
X836Y948D01*
X859Y948D02*
X882Y948D01*
X913Y948D02*
X936Y948D01*
X959Y948D02*
X982Y948D01*
X1012Y948D02*
X1036Y948D01*
X1059Y948D02*
X1082Y948D01*
X1112Y948D02*
X1136Y948D01*
X1159Y948D02*
X1182Y948D01*
X1212Y948D02*
X1236Y948D01*
X1259Y948D02*
X1282Y948D01*
X1312Y948D02*
X1336Y948D01*
X1359Y948D02*
X1382Y948D01*
X1412Y948D02*
X1436Y948D01*
X1459Y948D02*
X1482Y948D01*
X1512Y948D02*
X1536Y948D01*
X1559Y948D02*
X1582Y948D01*
X1612Y948D02*
X1636Y948D01*
X1659Y948D02*
X1682Y948D01*
X1712Y948D02*
X1736Y948D01*
X1759Y948D02*
X1782Y948D01*
X1812Y948D02*
X1836Y948D01*
X1858Y948D02*
X1882Y948D01*
X413Y947D02*
X438Y947D01*
X457Y947D02*
X482Y947D01*
X513Y947D02*
X538Y947D01*
X557Y947D02*
X582Y947D01*
X613Y947D02*
X637Y947D01*
X657Y947D02*
X682Y947D01*
X713Y947D02*
X737Y947D01*
X757Y947D02*
X782Y947D01*
X813Y947D02*
X838Y947D01*
X857Y947D02*
X882Y947D01*
X913Y947D02*
X938Y947D01*
X957Y947D02*
X982Y947D01*
X1013Y947D02*
X1038Y947D01*
X1057Y947D02*
X1082Y947D01*
X1113Y947D02*
X1138Y947D01*
X1157Y947D02*
X1182Y947D01*
X1213Y947D02*
X1238Y947D01*
X1257Y947D02*
X1282Y947D01*
X1313Y947D02*
X1338Y947D01*
X1357Y947D02*
X1382Y947D01*
X1413Y947D02*
X1438Y947D01*
X1457Y947D02*
X1482Y947D01*
X1513Y947D02*
X1537Y947D01*
X1557Y947D02*
X1582Y947D01*
X1613Y947D02*
X1637Y947D01*
X1657Y947D02*
X1682Y947D01*
X1713Y947D02*
X1737Y947D01*
X1757Y947D02*
X1782Y947D01*
X1813Y947D02*
X1837Y947D01*
X1857Y947D02*
X1882Y947D01*
X414Y946D02*
X440Y946D01*
X456Y946D02*
X482Y946D01*
X513Y946D02*
X540Y946D01*
X555Y946D02*
X581Y946D01*
X613Y946D02*
X639Y946D01*
X655Y946D02*
X681Y946D01*
X713Y946D02*
X739Y946D01*
X755Y946D02*
X781Y946D01*
X814Y946D02*
X840Y946D01*
X855Y946D02*
X881Y946D01*
X913Y946D02*
X940Y946D01*
X955Y946D02*
X981Y946D01*
X1013Y946D02*
X1039Y946D01*
X1055Y946D02*
X1081Y946D01*
X1113Y946D02*
X1139Y946D01*
X1155Y946D02*
X1181Y946D01*
X1213Y946D02*
X1239Y946D01*
X1255Y946D02*
X1281Y946D01*
X1313Y946D02*
X1339Y946D01*
X1355Y946D02*
X1381Y946D01*
X1413Y946D02*
X1439Y946D01*
X1455Y946D02*
X1481Y946D01*
X1513Y946D02*
X1539Y946D01*
X1555Y946D02*
X1581Y946D01*
X1613Y946D02*
X1639Y946D01*
X1655Y946D02*
X1681Y946D01*
X1713Y946D02*
X1739Y946D01*
X1755Y946D02*
X1781Y946D01*
X1813Y946D02*
X1839Y946D01*
X1855Y946D02*
X1881Y946D01*
X414Y945D02*
X443Y945D01*
X452Y945D02*
X481Y945D01*
X514Y945D02*
X543Y945D01*
X552Y945D02*
X581Y945D01*
X614Y945D02*
X643Y945D01*
X652Y945D02*
X681Y945D01*
X714Y945D02*
X743Y945D01*
X752Y945D02*
X781Y945D01*
X814Y945D02*
X843Y945D01*
X852Y945D02*
X881Y945D01*
X914Y945D02*
X943Y945D01*
X952Y945D02*
X981Y945D01*
X1014Y945D02*
X1043Y945D01*
X1052Y945D02*
X1081Y945D01*
X1114Y945D02*
X1143Y945D01*
X1152Y945D02*
X1181Y945D01*
X1214Y945D02*
X1243Y945D01*
X1252Y945D02*
X1281Y945D01*
X1314Y945D02*
X1343Y945D01*
X1352Y945D02*
X1381Y945D01*
X1414Y945D02*
X1443Y945D01*
X1452Y945D02*
X1481Y945D01*
X1514Y945D02*
X1543Y945D01*
X1552Y945D02*
X1581Y945D01*
X1614Y945D02*
X1643Y945D01*
X1652Y945D02*
X1681Y945D01*
X1714Y945D02*
X1743Y945D01*
X1752Y945D02*
X1781Y945D01*
X1814Y945D02*
X1843Y945D01*
X1852Y945D02*
X1881Y945D01*
X415Y944D02*
X481Y944D01*
X515Y944D02*
X580Y944D01*
X614Y944D02*
X680Y944D01*
X714Y944D02*
X780Y944D01*
X815Y944D02*
X880Y944D01*
X915Y944D02*
X980Y944D01*
X1015Y944D02*
X1080Y944D01*
X1114Y944D02*
X1180Y944D01*
X1214Y944D02*
X1280Y944D01*
X1314Y944D02*
X1380Y944D01*
X1414Y944D02*
X1480Y944D01*
X1514Y944D02*
X1580Y944D01*
X1614Y944D02*
X1680Y944D01*
X1714Y944D02*
X1780Y944D01*
X1814Y944D02*
X1880Y944D01*
X415Y943D02*
X480Y943D01*
X515Y943D02*
X580Y943D01*
X615Y943D02*
X680Y943D01*
X715Y943D02*
X779Y943D01*
X815Y943D02*
X880Y943D01*
X915Y943D02*
X980Y943D01*
X1015Y943D02*
X1080Y943D01*
X1115Y943D02*
X1180Y943D01*
X1215Y943D02*
X1280Y943D01*
X1315Y943D02*
X1380Y943D01*
X1415Y943D02*
X1480Y943D01*
X1515Y943D02*
X1580Y943D01*
X1615Y943D02*
X1680Y943D01*
X1715Y943D02*
X1780Y943D01*
X1815Y943D02*
X1879Y943D01*
X416Y942D02*
X479Y942D01*
X516Y942D02*
X579Y942D01*
X616Y942D02*
X679Y942D01*
X715Y942D02*
X779Y942D01*
X816Y942D02*
X879Y942D01*
X916Y942D02*
X979Y942D01*
X1016Y942D02*
X1079Y942D01*
X1116Y942D02*
X1179Y942D01*
X1216Y942D02*
X1279Y942D01*
X1316Y942D02*
X1379Y942D01*
X1416Y942D02*
X1479Y942D01*
X1516Y942D02*
X1579Y942D01*
X1615Y942D02*
X1679Y942D01*
X1715Y942D02*
X1779Y942D01*
X1815Y942D02*
X1879Y942D01*
X417Y941D02*
X479Y941D01*
X516Y941D02*
X579Y941D01*
X616Y941D02*
X678Y941D01*
X716Y941D02*
X778Y941D01*
X816Y941D02*
X879Y941D01*
X916Y941D02*
X979Y941D01*
X1016Y941D02*
X1078Y941D01*
X1116Y941D02*
X1178Y941D01*
X1216Y941D02*
X1278Y941D01*
X1316Y941D02*
X1378Y941D01*
X1416Y941D02*
X1478Y941D01*
X1516Y941D02*
X1578Y941D01*
X1616Y941D02*
X1678Y941D01*
X1716Y941D02*
X1778Y941D01*
X1816Y941D02*
X1878Y941D01*
X417Y940D02*
X478Y940D01*
X517Y940D02*
X578Y940D01*
X617Y940D02*
X678Y940D01*
X717Y940D02*
X777Y940D01*
X817Y940D02*
X878Y940D01*
X917Y940D02*
X978Y940D01*
X1017Y940D02*
X1078Y940D01*
X1117Y940D02*
X1178Y940D01*
X1217Y940D02*
X1278Y940D01*
X1317Y940D02*
X1378Y940D01*
X1417Y940D02*
X1478Y940D01*
X1517Y940D02*
X1578Y940D01*
X1617Y940D02*
X1678Y940D01*
X1717Y940D02*
X1777Y940D01*
X1817Y940D02*
X1877Y940D01*
X418Y939D02*
X477Y939D01*
X518Y939D02*
X577Y939D01*
X618Y939D02*
X677Y939D01*
X717Y939D02*
X777Y939D01*
X818Y939D02*
X877Y939D01*
X918Y939D02*
X977Y939D01*
X1018Y939D02*
X1077Y939D01*
X1118Y939D02*
X1177Y939D01*
X1218Y939D02*
X1277Y939D01*
X1318Y939D02*
X1377Y939D01*
X1418Y939D02*
X1477Y939D01*
X1518Y939D02*
X1577Y939D01*
X1618Y939D02*
X1677Y939D01*
X1718Y939D02*
X1777Y939D01*
X1818Y939D02*
X1877Y939D01*
X419Y938D02*
X476Y938D01*
X519Y938D02*
X576Y938D01*
X619Y938D02*
X676Y938D01*
X718Y938D02*
X776Y938D01*
X819Y938D02*
X876Y938D01*
X919Y938D02*
X976Y938D01*
X1019Y938D02*
X1076Y938D01*
X1119Y938D02*
X1176Y938D01*
X1219Y938D02*
X1276Y938D01*
X1319Y938D02*
X1376Y938D01*
X1419Y938D02*
X1476Y938D01*
X1519Y938D02*
X1576Y938D01*
X1618Y938D02*
X1676Y938D01*
X1718Y938D02*
X1776Y938D01*
X1818Y938D02*
X1876Y938D01*
X420Y937D02*
X475Y937D01*
X520Y937D02*
X575Y937D01*
X619Y937D02*
X675Y937D01*
X719Y937D02*
X775Y937D01*
X820Y937D02*
X875Y937D01*
X920Y937D02*
X975Y937D01*
X1020Y937D02*
X1075Y937D01*
X1120Y937D02*
X1175Y937D01*
X1220Y937D02*
X1275Y937D01*
X1319Y937D02*
X1375Y937D01*
X1419Y937D02*
X1475Y937D01*
X1519Y937D02*
X1575Y937D01*
X1619Y937D02*
X1675Y937D01*
X1719Y937D02*
X1775Y937D01*
X1819Y937D02*
X1875Y937D01*
X421Y936D02*
X475Y936D01*
X521Y936D02*
X574Y936D01*
X620Y936D02*
X674Y936D01*
X720Y936D02*
X774Y936D01*
X821Y936D02*
X874Y936D01*
X921Y936D02*
X974Y936D01*
X1021Y936D02*
X1074Y936D01*
X1120Y936D02*
X1174Y936D01*
X1220Y936D02*
X1274Y936D01*
X1320Y936D02*
X1374Y936D01*
X1420Y936D02*
X1474Y936D01*
X1520Y936D02*
X1574Y936D01*
X1620Y936D02*
X1674Y936D01*
X1720Y936D02*
X1774Y936D01*
X1820Y936D02*
X1874Y936D01*
X422Y935D02*
X473Y935D01*
X522Y935D02*
X573Y935D01*
X621Y935D02*
X673Y935D01*
X721Y935D02*
X773Y935D01*
X822Y935D02*
X873Y935D01*
X922Y935D02*
X973Y935D01*
X1022Y935D02*
X1073Y935D01*
X1122Y935D02*
X1173Y935D01*
X1222Y935D02*
X1273Y935D01*
X1322Y935D02*
X1373Y935D01*
X1421Y935D02*
X1473Y935D01*
X1521Y935D02*
X1573Y935D01*
X1621Y935D02*
X1673Y935D01*
X1721Y935D02*
X1773Y935D01*
X1821Y935D02*
X1873Y935D01*
X423Y934D02*
X472Y934D01*
X523Y934D02*
X572Y934D01*
X623Y934D02*
X672Y934D01*
X722Y934D02*
X772Y934D01*
X823Y934D02*
X872Y934D01*
X923Y934D02*
X972Y934D01*
X1023Y934D02*
X1072Y934D01*
X1123Y934D02*
X1172Y934D01*
X1223Y934D02*
X1272Y934D01*
X1323Y934D02*
X1372Y934D01*
X1423Y934D02*
X1472Y934D01*
X1523Y934D02*
X1572Y934D01*
X1623Y934D02*
X1672Y934D01*
X1722Y934D02*
X1772Y934D01*
X1822Y934D02*
X1872Y934D01*
X424Y933D02*
X471Y933D01*
X524Y933D02*
X571Y933D01*
X624Y933D02*
X671Y933D01*
X724Y933D02*
X770Y933D01*
X824Y933D02*
X871Y933D01*
X924Y933D02*
X971Y933D01*
X1024Y933D02*
X1071Y933D01*
X1124Y933D02*
X1171Y933D01*
X1224Y933D02*
X1271Y933D01*
X1324Y933D02*
X1371Y933D01*
X1424Y933D02*
X1471Y933D01*
X1524Y933D02*
X1571Y933D01*
X1624Y933D02*
X1671Y933D01*
X1724Y933D02*
X1771Y933D01*
X1824Y933D02*
X1871Y933D01*
X426Y932D02*
X470Y932D01*
X525Y932D02*
X569Y932D01*
X625Y932D02*
X669Y932D01*
X725Y932D02*
X769Y932D01*
X826Y932D02*
X870Y932D01*
X925Y932D02*
X969Y932D01*
X1025Y932D02*
X1069Y932D01*
X1125Y932D02*
X1169Y932D01*
X1225Y932D02*
X1269Y932D01*
X1325Y932D02*
X1369Y932D01*
X1425Y932D02*
X1469Y932D01*
X1525Y932D02*
X1569Y932D01*
X1625Y932D02*
X1669Y932D01*
X1725Y932D02*
X1769Y932D01*
X1825Y932D02*
X1869Y932D01*
X427Y931D02*
X468Y931D01*
X527Y931D02*
X568Y931D01*
X627Y931D02*
X668Y931D01*
X727Y931D02*
X768Y931D01*
X827Y931D02*
X868Y931D01*
X927Y931D02*
X968Y931D01*
X1027Y931D02*
X1068Y931D01*
X1127Y931D02*
X1168Y931D01*
X1227Y931D02*
X1268Y931D01*
X1327Y931D02*
X1368Y931D01*
X1427Y931D02*
X1468Y931D01*
X1527Y931D02*
X1568Y931D01*
X1627Y931D02*
X1668Y931D01*
X1727Y931D02*
X1768Y931D01*
X1827Y931D02*
X1868Y931D01*
X429Y930D02*
X466Y930D01*
X529Y930D02*
X566Y930D01*
X629Y930D02*
X666Y930D01*
X728Y930D02*
X766Y930D01*
X829Y930D02*
X866Y930D01*
X929Y930D02*
X966Y930D01*
X1029Y930D02*
X1066Y930D01*
X1129Y930D02*
X1166Y930D01*
X1229Y930D02*
X1266Y930D01*
X1329Y930D02*
X1366Y930D01*
X1429Y930D02*
X1466Y930D01*
X1528Y930D02*
X1566Y930D01*
X1628Y930D02*
X1666Y930D01*
X1728Y930D02*
X1766Y930D01*
X1828Y930D02*
X1866Y930D01*
X431Y929D02*
X464Y929D01*
X531Y929D02*
X564Y929D01*
X630Y929D02*
X664Y929D01*
X730Y929D02*
X764Y929D01*
X831Y929D02*
X864Y929D01*
X931Y929D02*
X964Y929D01*
X1031Y929D02*
X1064Y929D01*
X1131Y929D02*
X1164Y929D01*
X1231Y929D02*
X1264Y929D01*
X1330Y929D02*
X1364Y929D01*
X1430Y929D02*
X1464Y929D01*
X1530Y929D02*
X1564Y929D01*
X1630Y929D02*
X1664Y929D01*
X1730Y929D02*
X1764Y929D01*
X1830Y929D02*
X1864Y929D01*
X433Y928D02*
X462Y928D01*
X533Y928D02*
X562Y928D01*
X633Y928D02*
X662Y928D01*
X732Y928D02*
X762Y928D01*
X833Y928D02*
X862Y928D01*
X933Y928D02*
X962Y928D01*
X1033Y928D02*
X1062Y928D01*
X1133Y928D02*
X1162Y928D01*
X1233Y928D02*
X1262Y928D01*
X1333Y928D02*
X1362Y928D01*
X1433Y928D02*
X1462Y928D01*
X1533Y928D02*
X1562Y928D01*
X1632Y928D02*
X1662Y928D01*
X1732Y928D02*
X1762Y928D01*
X1832Y928D02*
X1862Y928D01*
X436Y927D02*
X460Y927D01*
X535Y927D02*
X560Y927D01*
X635Y927D02*
X659Y927D01*
X735Y927D02*
X759Y927D01*
X835Y927D02*
X860Y927D01*
X935Y927D02*
X960Y927D01*
X1035Y927D02*
X1060Y927D01*
X1135Y927D02*
X1159Y927D01*
X1235Y927D02*
X1259Y927D01*
X1335Y927D02*
X1359Y927D01*
X1435Y927D02*
X1459Y927D01*
X1535Y927D02*
X1559Y927D01*
X1635Y927D02*
X1659Y927D01*
X1735Y927D02*
X1759Y927D01*
X1835Y927D02*
X1859Y927D01*
X439Y926D02*
X456Y926D01*
X539Y926D02*
X556Y926D01*
X638Y926D02*
X656Y926D01*
X738Y926D02*
X756Y926D01*
X839Y926D02*
X856Y926D01*
X939Y926D02*
X956Y926D01*
X1039Y926D02*
X1056Y926D01*
X1139Y926D02*
X1156Y926D01*
X1239Y926D02*
X1256Y926D01*
X1339Y926D02*
X1356Y926D01*
X1439Y926D02*
X1456Y926D01*
X1538Y926D02*
X1556Y926D01*
X1638Y926D02*
X1656Y926D01*
X1738Y926D02*
X1756Y926D01*
X1838Y926D02*
X1856Y926D01*
X444Y925D02*
X451Y925D01*
X544Y925D02*
X551Y925D01*
X643Y925D02*
X651Y925D01*
X743Y925D02*
X751Y925D01*
X844Y925D02*
X851Y925D01*
X944Y925D02*
X951Y925D01*
X1044Y925D02*
X1051Y925D01*
X1144Y925D02*
X1151Y925D01*
X1244Y925D02*
X1251Y925D01*
X1344Y925D02*
X1351Y925D01*
X1443Y925D02*
X1451Y925D01*
X1543Y925D02*
X1551Y925D01*
X1643Y925D02*
X1651Y925D01*
X1743Y925D02*
X1751Y925D01*
X1843Y925D02*
X1851Y925D01*
D02*
G04 End of Copper1*
M02*