; NON-PLATED HOLES START AT T1
; THROUGH (PLATED) HOLES START AT T100
M48
INCH
T100C0.098425
T101C0.039370
T102C0.038000
T103C0.031497
T104C0.035000
%
T100
X016493Y006722
X008493Y006722
X016493Y001722
X008493Y001722
T101
X010993Y006722
X011993Y006722
X013993Y001722
X012993Y006722
X009993Y006722
X011993Y001722
X012993Y001722
X014993Y001722
X013993Y006722
X009993Y001722
X010993Y001722
X014993Y006722
T102
X004983Y002131
X003983Y002131
T103
X001483Y007631
X002467Y007631
T104
X019711Y002631
X021483Y002631
X001483Y005631
X019711Y005190
X021483Y005190
X001483Y001631
T00
M30
